ISO-10303-21;
HEADER;
FILE_DESCRIPTION(('Open CASCADE Model'),'2;1');
FILE_NAME('Open CASCADE Shape Model','2026-09-14T04:54:15',('Author'),(
    'Open CASCADE'),'Open CASCADE STEP processor 7.9','Open CASCADE 7.9'
  ,'Unknown');
FILE_SCHEMA(('AUTOMOTIVE_DESIGN { 1 0 10303 214 1 1 1 1 }'));
ENDSEC;
DATA;
#1 = APPLICATION_PROTOCOL_DEFINITION('international standard',
  'automotive_design',2000,#2);
#2 = APPLICATION_CONTEXT(
  'core data for automotive mechanical design processes');
#3 = SHAPE_DEFINITION_REPRESENTATION(#4,#10);
#4 = PRODUCT_DEFINITION_SHAPE('','',#5);
#5 = PRODUCT_DEFINITION('design','',#6,#9);
#6 = PRODUCT_DEFINITION_FORMATION('','',#7);
#7 = PRODUCT('Open CASCADE STEP translator 7.9 7',
  'Open CASCADE STEP translator 7.9 7','',(#8));
#8 = PRODUCT_CONTEXT('',#2,'mechanical');
#9 = PRODUCT_DEFINITION_CONTEXT('part definition',#2,'design');
#10 = ADVANCED_BREP_SHAPE_REPRESENTATION('',(#11,#15),#1531);
#11 = AXIS2_PLACEMENT_3D('',#12,#13,#14);
#12 = CARTESIAN_POINT('',(0.,0.,0.));
#13 = DIRECTION('',(0.,0.,1.));
#14 = DIRECTION('',(1.,0.,-0.));
#15 = MANIFOLD_SOLID_BREP('',#16);
#16 = CLOSED_SHELL('',(#17,#105,#109,#144,#321,#325,#727,#776,#1131,
    #1156,#1206,#1233,#1258,#1356,#1511,#1517,#1523,#1527));
#17 = ADVANCED_FACE('',(#18),#32,.T.);
#18 = FACE_BOUND('',#19,.F.);
#19 = EDGE_LOOP('',(#20,#50,#77,#78));
#20 = ORIENTED_EDGE('',*,*,#21,.T.);
#21 = EDGE_CURVE('',#22,#24,#26,.T.);
#22 = VERTEX_POINT('',#23);
#23 = CARTESIAN_POINT('',(240.,-260.,0.));
#24 = VERTEX_POINT('',#25);
#25 = CARTESIAN_POINT('',(240.,-260.,10.));
#26 = SEAM_CURVE('',#27,(#31,#43),.PCURVE_S1.);
#27 = LINE('',#28,#29);
#28 = CARTESIAN_POINT('',(240.,-260.,0.));
#29 = VECTOR('',#30,1.);
#30 = DIRECTION('',(0.,0.,1.));
#31 = PCURVE('',#32,#37);
#32 = CYLINDRICAL_SURFACE('',#33,40.);
#33 = AXIS2_PLACEMENT_3D('',#34,#35,#36);
#34 = CARTESIAN_POINT('',(200.,-260.,0.));
#35 = DIRECTION('',(-0.,-0.,-1.));
#36 = DIRECTION('',(1.,0.,0.));
#37 = DEFINITIONAL_REPRESENTATION('',(#38),#42);
#38 = LINE('',#39,#40);
#39 = CARTESIAN_POINT('',(-0.,0.));
#40 = VECTOR('',#41,1.);
#41 = DIRECTION('',(-0.,-1.));
#42 = ( GEOMETRIC_REPRESENTATION_CONTEXT(2) 
PARAMETRIC_REPRESENTATION_CONTEXT() REPRESENTATION_CONTEXT('2D SPACE',''
  ) );
#43 = PCURVE('',#32,#44);
#44 = DEFINITIONAL_REPRESENTATION('',(#45),#49);
#45 = LINE('',#46,#47);
#46 = CARTESIAN_POINT('',(-6.28318530718,0.));
#47 = VECTOR('',#48,1.);
#48 = DIRECTION('',(-0.,-1.));
#49 = ( GEOMETRIC_REPRESENTATION_CONTEXT(2) 
PARAMETRIC_REPRESENTATION_CONTEXT() REPRESENTATION_CONTEXT('2D SPACE',''
  ) );
#50 = ORIENTED_EDGE('',*,*,#51,.T.);
#51 = EDGE_CURVE('',#24,#24,#52,.T.);
#52 = SURFACE_CURVE('',#53,(#58,#65),.PCURVE_S1.);
#53 = CIRCLE('',#54,40.);
#54 = AXIS2_PLACEMENT_3D('',#55,#56,#57);
#55 = CARTESIAN_POINT('',(200.,-260.,10.));
#56 = DIRECTION('',(0.,0.,1.));
#57 = DIRECTION('',(1.,0.,0.));
#58 = PCURVE('',#32,#59);
#59 = DEFINITIONAL_REPRESENTATION('',(#60),#64);
#60 = LINE('',#61,#62);
#61 = CARTESIAN_POINT('',(-0.,-10.));
#62 = VECTOR('',#63,1.);
#63 = DIRECTION('',(-1.,0.));
#64 = ( GEOMETRIC_REPRESENTATION_CONTEXT(2) 
PARAMETRIC_REPRESENTATION_CONTEXT() REPRESENTATION_CONTEXT('2D SPACE',''
  ) );
#65 = PCURVE('',#66,#71);
#66 = PLANE('',#67);
#67 = AXIS2_PLACEMENT_3D('',#68,#69,#70);
#68 = CARTESIAN_POINT('',(200.,-260.,10.));
#69 = DIRECTION('',(0.,0.,1.));
#70 = DIRECTION('',(1.,0.,-0.));
#71 = DEFINITIONAL_REPRESENTATION('',(#72),#76);
#72 = CIRCLE('',#73,40.);
#73 = AXIS2_PLACEMENT_2D('',#74,#75);
#74 = CARTESIAN_POINT('',(0.,0.));
#75 = DIRECTION('',(1.,0.));
#76 = ( GEOMETRIC_REPRESENTATION_CONTEXT(2) 
PARAMETRIC_REPRESENTATION_CONTEXT() REPRESENTATION_CONTEXT('2D SPACE',''
  ) );
#77 = ORIENTED_EDGE('',*,*,#21,.F.);
#78 = ORIENTED_EDGE('',*,*,#79,.F.);
#79 = EDGE_CURVE('',#22,#22,#80,.T.);
#80 = SURFACE_CURVE('',#81,(#86,#93),.PCURVE_S1.);
#81 = CIRCLE('',#82,40.);
#82 = AXIS2_PLACEMENT_3D('',#83,#84,#85);
#83 = CARTESIAN_POINT('',(200.,-260.,0.));
#84 = DIRECTION('',(0.,0.,1.));
#85 = DIRECTION('',(1.,0.,0.));
#86 = PCURVE('',#32,#87);
#87 = DEFINITIONAL_REPRESENTATION('',(#88),#92);
#88 = LINE('',#89,#90);
#89 = CARTESIAN_POINT('',(-0.,0.));
#90 = VECTOR('',#91,1.);
#91 = DIRECTION('',(-1.,0.));
#92 = ( GEOMETRIC_REPRESENTATION_CONTEXT(2) 
PARAMETRIC_REPRESENTATION_CONTEXT() REPRESENTATION_CONTEXT('2D SPACE',''
  ) );
#93 = PCURVE('',#94,#99);
#94 = PLANE('',#95);
#95 = AXIS2_PLACEMENT_3D('',#96,#97,#98);
#96 = CARTESIAN_POINT('',(200.,-260.,0.));
#97 = DIRECTION('',(0.,0.,1.));
#98 = DIRECTION('',(1.,0.,-0.));
#99 = DEFINITIONAL_REPRESENTATION('',(#100),#104);
#100 = CIRCLE('',#101,40.);
#101 = AXIS2_PLACEMENT_2D('',#102,#103);
#102 = CARTESIAN_POINT('',(0.,0.));
#103 = DIRECTION('',(1.,0.));
#104 = ( GEOMETRIC_REPRESENTATION_CONTEXT(2) 
PARAMETRIC_REPRESENTATION_CONTEXT() REPRESENTATION_CONTEXT('2D SPACE',''
  ) );
#105 = ADVANCED_FACE('',(#106),#94,.F.);
#106 = FACE_BOUND('',#107,.F.);
#107 = EDGE_LOOP('',(#108));
#108 = ORIENTED_EDGE('',*,*,#79,.T.);
#109 = ADVANCED_FACE('',(#110,#113),#66,.T.);
#110 = FACE_BOUND('',#111,.T.);
#111 = EDGE_LOOP('',(#112));
#112 = ORIENTED_EDGE('',*,*,#51,.T.);
#113 = FACE_BOUND('',#114,.T.);
#114 = EDGE_LOOP('',(#115));
#115 = ORIENTED_EDGE('',*,*,#116,.F.);
#116 = EDGE_CURVE('',#117,#117,#119,.T.);
#117 = VERTEX_POINT('',#118);
#118 = CARTESIAN_POINT('',(212.,-260.,10.));
#119 = SURFACE_CURVE('',#120,(#125,#132),.PCURVE_S1.);
#120 = CIRCLE('',#121,12.);
#121 = AXIS2_PLACEMENT_3D('',#122,#123,#124);
#122 = CARTESIAN_POINT('',(200.,-260.,10.));
#123 = DIRECTION('',(0.,0.,1.));
#124 = DIRECTION('',(1.,0.,0.));
#125 = PCURVE('',#66,#126);
#126 = DEFINITIONAL_REPRESENTATION('',(#127),#131);
#127 = CIRCLE('',#128,12.);
#128 = AXIS2_PLACEMENT_2D('',#129,#130);
#129 = CARTESIAN_POINT('',(0.,0.));
#130 = DIRECTION('',(1.,0.));
#131 = ( GEOMETRIC_REPRESENTATION_CONTEXT(2) 
PARAMETRIC_REPRESENTATION_CONTEXT() REPRESENTATION_CONTEXT('2D SPACE',''
  ) );
#132 = PCURVE('',#133,#138);
#133 = CYLINDRICAL_SURFACE('',#134,12.);
#134 = AXIS2_PLACEMENT_3D('',#135,#136,#137);
#135 = CARTESIAN_POINT('',(200.,-260.,10.));
#136 = DIRECTION('',(-0.,-0.,-1.));
#137 = DIRECTION('',(1.,0.,0.));
#138 = DEFINITIONAL_REPRESENTATION('',(#139),#143);
#139 = LINE('',#140,#141);
#140 = CARTESIAN_POINT('',(-0.,0.));
#141 = VECTOR('',#142,1.);
#142 = DIRECTION('',(-1.,0.));
#143 = ( GEOMETRIC_REPRESENTATION_CONTEXT(2) 
PARAMETRIC_REPRESENTATION_CONTEXT() REPRESENTATION_CONTEXT('2D SPACE',''
  ) );
#144 = ADVANCED_FACE('',(#145,#199),#133,.T.);
#145 = FACE_BOUND('',#146,.F.);
#146 = EDGE_LOOP('',(#147,#148,#171,#198));
#147 = ORIENTED_EDGE('',*,*,#116,.F.);
#148 = ORIENTED_EDGE('',*,*,#149,.T.);
#149 = EDGE_CURVE('',#117,#150,#152,.T.);
#150 = VERTEX_POINT('',#151);
#151 = CARTESIAN_POINT('',(212.,-260.,300.));
#152 = SEAM_CURVE('',#153,(#157,#164),.PCURVE_S1.);
#153 = LINE('',#154,#155);
#154 = CARTESIAN_POINT('',(212.,-260.,10.));
#155 = VECTOR('',#156,1.);
#156 = DIRECTION('',(0.,0.,1.));
#157 = PCURVE('',#133,#158);
#158 = DEFINITIONAL_REPRESENTATION('',(#159),#163);
#159 = LINE('',#160,#161);
#160 = CARTESIAN_POINT('',(-6.28318530718,0.));
#161 = VECTOR('',#162,1.);
#162 = DIRECTION('',(-0.,-1.));
#163 = ( GEOMETRIC_REPRESENTATION_CONTEXT(2) 
PARAMETRIC_REPRESENTATION_CONTEXT() REPRESENTATION_CONTEXT('2D SPACE',''
  ) );
#164 = PCURVE('',#133,#165);
#165 = DEFINITIONAL_REPRESENTATION('',(#166),#170);
#166 = LINE('',#167,#168);
#167 = CARTESIAN_POINT('',(-0.,0.));
#168 = VECTOR('',#169,1.);
#169 = DIRECTION('',(-0.,-1.));
#170 = ( GEOMETRIC_REPRESENTATION_CONTEXT(2) 
PARAMETRIC_REPRESENTATION_CONTEXT() REPRESENTATION_CONTEXT('2D SPACE',''
  ) );
#171 = ORIENTED_EDGE('',*,*,#172,.T.);
#172 = EDGE_CURVE('',#150,#150,#173,.T.);
#173 = SURFACE_CURVE('',#174,(#179,#186),.PCURVE_S1.);
#174 = CIRCLE('',#175,12.);
#175 = AXIS2_PLACEMENT_3D('',#176,#177,#178);
#176 = CARTESIAN_POINT('',(200.,-260.,300.));
#177 = DIRECTION('',(0.,0.,1.));
#178 = DIRECTION('',(1.,0.,0.));
#179 = PCURVE('',#133,#180);
#180 = DEFINITIONAL_REPRESENTATION('',(#181),#185);
#181 = LINE('',#182,#183);
#182 = CARTESIAN_POINT('',(-0.,-290.));
#183 = VECTOR('',#184,1.);
#184 = DIRECTION('',(-1.,0.));
#185 = ( GEOMETRIC_REPRESENTATION_CONTEXT(2) 
PARAMETRIC_REPRESENTATION_CONTEXT() REPRESENTATION_CONTEXT('2D SPACE',''
  ) );
#186 = PCURVE('',#187,#192);
#187 = PLANE('',#188);
#188 = AXIS2_PLACEMENT_3D('',#189,#190,#191);
#189 = CARTESIAN_POINT('',(200.,-260.,300.));
#190 = DIRECTION('',(0.,0.,1.));
#191 = DIRECTION('',(1.,0.,-0.));
#192 = DEFINITIONAL_REPRESENTATION('',(#193),#197);
#193 = CIRCLE('',#194,12.);
#194 = AXIS2_PLACEMENT_2D('',#195,#196);
#195 = CARTESIAN_POINT('',(0.,0.));
#196 = DIRECTION('',(1.,0.));
#197 = ( GEOMETRIC_REPRESENTATION_CONTEXT(2) 
PARAMETRIC_REPRESENTATION_CONTEXT() REPRESENTATION_CONTEXT('2D SPACE',''
  ) );
#198 = ORIENTED_EDGE('',*,*,#149,.F.);
#199 = FACE_BOUND('',#200,.F.);
#200 = EDGE_LOOP('',(#201,#230,#263,#290));
#201 = ORIENTED_EDGE('',*,*,#202,.F.);
#202 = EDGE_CURVE('',#203,#205,#207,.T.);
#203 = VERTEX_POINT('',#204);
#204 = CARTESIAN_POINT('',(189.,-255.2041684766,292.));
#205 = VERTEX_POINT('',#206);
#206 = CARTESIAN_POINT('',(189.,-255.2041684766,270.));
#207 = SURFACE_CURVE('',#208,(#212,#218),.PCURVE_S1.);
#208 = LINE('',#209,#210);
#209 = CARTESIAN_POINT('',(189.,-255.2041684766,10.));
#210 = VECTOR('',#211,1.);
#211 = DIRECTION('',(-0.,-0.,-1.));
#212 = PCURVE('',#133,#213);
#213 = DEFINITIONAL_REPRESENTATION('',(#214),#217);
#214 = B_SPLINE_CURVE_WITH_KNOTS('',1,(#215,#216),.UNSPECIFIED.,.F.,.F.,
  (2,2),(-284.2,-257.8),.PIECEWISE_BEZIER_KNOTS.);
#215 = CARTESIAN_POINT('',(-2.730454791267,-284.2));
#216 = CARTESIAN_POINT('',(-2.730454791267,-257.8));
#217 = ( GEOMETRIC_REPRESENTATION_CONTEXT(2) 
PARAMETRIC_REPRESENTATION_CONTEXT() REPRESENTATION_CONTEXT('2D SPACE',''
  ) );
#218 = PCURVE('',#219,#224);
#219 = PLANE('',#220);
#220 = AXIS2_PLACEMENT_3D('',#221,#222,#223);
#221 = CARTESIAN_POINT('',(189.,-206.,281.));
#222 = DIRECTION('',(1.,0.,0.));
#223 = DIRECTION('',(0.,0.,1.));
#224 = DEFINITIONAL_REPRESENTATION('',(#225),#229);
#225 = LINE('',#226,#227);
#226 = CARTESIAN_POINT('',(-271.,49.204168476687));
#227 = VECTOR('',#228,1.);
#228 = DIRECTION('',(-1.,0.));
#229 = ( GEOMETRIC_REPRESENTATION_CONTEXT(2) 
PARAMETRIC_REPRESENTATION_CONTEXT() REPRESENTATION_CONTEXT('2D SPACE',''
  ) );
#230 = ORIENTED_EDGE('',*,*,#231,.T.);
#231 = EDGE_CURVE('',#203,#232,#234,.T.);
#232 = VERTEX_POINT('',#233);
#233 = CARTESIAN_POINT('',(211.,-255.2041684766,292.));
#234 = SURFACE_CURVE('',#235,(#240,#247),.PCURVE_S1.);
#235 = CIRCLE('',#236,12.);
#236 = AXIS2_PLACEMENT_3D('',#237,#238,#239);
#237 = CARTESIAN_POINT('',(200.,-260.,292.));
#238 = DIRECTION('',(0.,0.,-1.));
#239 = DIRECTION('',(1.,0.,0.));
#240 = PCURVE('',#133,#241);
#241 = DEFINITIONAL_REPRESENTATION('',(#242),#246);
#242 = LINE('',#243,#244);
#243 = CARTESIAN_POINT('',(-6.28318530718,-282.));
#244 = VECTOR('',#245,1.);
#245 = DIRECTION('',(1.,-0.));
#246 = ( GEOMETRIC_REPRESENTATION_CONTEXT(2) 
PARAMETRIC_REPRESENTATION_CONTEXT() REPRESENTATION_CONTEXT('2D SPACE',''
  ) );
#247 = PCURVE('',#248,#253);
#248 = PLANE('',#249);
#249 = AXIS2_PLACEMENT_3D('',#250,#251,#252);
#250 = CARTESIAN_POINT('',(189.,-262.,292.));
#251 = DIRECTION('',(0.,0.,1.));
#252 = DIRECTION('',(1.,0.,0.));
#253 = DEFINITIONAL_REPRESENTATION('',(#254),#262);
#254 = ( BOUNDED_CURVE() B_SPLINE_CURVE(2,(#255,#256,#257,#258,#259,#260
,#261),.UNSPECIFIED.,.T.,.F.) B_SPLINE_CURVE_WITH_KNOTS((1,2,2,2,2,1),(
    -2.094395102393,0.,2.094395102393,4.188790204786,6.28318530718,
8.377580409573),.UNSPECIFIED.) CURVE() GEOMETRIC_REPRESENTATION_ITEM() 
RATIONAL_B_SPLINE_CURVE((1.,0.5,1.,0.5,1.,0.5,1.)) REPRESENTATION_ITEM(
  '') );
#255 = CARTESIAN_POINT('',(23.,2.));
#256 = CARTESIAN_POINT('',(23.,-18.78460969082));
#257 = CARTESIAN_POINT('',(5.,-8.392304845413));
#258 = CARTESIAN_POINT('',(-13.,2.));
#259 = CARTESIAN_POINT('',(5.,12.392304845413));
#260 = CARTESIAN_POINT('',(23.,22.784609690827));
#261 = CARTESIAN_POINT('',(23.,2.));
#262 = ( GEOMETRIC_REPRESENTATION_CONTEXT(2) 
PARAMETRIC_REPRESENTATION_CONTEXT() REPRESENTATION_CONTEXT('2D SPACE',''
  ) );
#263 = ORIENTED_EDGE('',*,*,#264,.T.);
#264 = EDGE_CURVE('',#232,#265,#267,.T.);
#265 = VERTEX_POINT('',#266);
#266 = CARTESIAN_POINT('',(211.,-255.2041684766,270.));
#267 = SURFACE_CURVE('',#268,(#272,#278),.PCURVE_S1.);
#268 = LINE('',#269,#270);
#269 = CARTESIAN_POINT('',(211.,-255.2041684766,10.));
#270 = VECTOR('',#271,1.);
#271 = DIRECTION('',(-0.,-0.,-1.));
#272 = PCURVE('',#133,#273);
#273 = DEFINITIONAL_REPRESENTATION('',(#274),#277);
#274 = B_SPLINE_CURVE_WITH_KNOTS('',1,(#275,#276),.UNSPECIFIED.,.F.,.F.,
  (2,2),(-284.2,-257.8),.PIECEWISE_BEZIER_KNOTS.);
#275 = CARTESIAN_POINT('',(-0.411137862322,-284.2));
#276 = CARTESIAN_POINT('',(-0.411137862322,-257.8));
#277 = ( GEOMETRIC_REPRESENTATION_CONTEXT(2) 
PARAMETRIC_REPRESENTATION_CONTEXT() REPRESENTATION_CONTEXT('2D SPACE',''
  ) );
#278 = PCURVE('',#279,#284);
#279 = PLANE('',#280);
#280 = AXIS2_PLACEMENT_3D('',#281,#282,#283);
#281 = CARTESIAN_POINT('',(211.,-206.,281.));
#282 = DIRECTION('',(1.,0.,0.));
#283 = DIRECTION('',(0.,0.,1.));
#284 = DEFINITIONAL_REPRESENTATION('',(#285),#289);
#285 = LINE('',#286,#287);
#286 = CARTESIAN_POINT('',(-271.,49.204168476687));
#287 = VECTOR('',#288,1.);
#288 = DIRECTION('',(-1.,0.));
#289 = ( GEOMETRIC_REPRESENTATION_CONTEXT(2) 
PARAMETRIC_REPRESENTATION_CONTEXT() REPRESENTATION_CONTEXT('2D SPACE',''
  ) );
#290 = ORIENTED_EDGE('',*,*,#291,.F.);
#291 = EDGE_CURVE('',#205,#265,#292,.T.);
#292 = SURFACE_CURVE('',#293,(#298,#305),.PCURVE_S1.);
#293 = CIRCLE('',#294,12.);
#294 = AXIS2_PLACEMENT_3D('',#295,#296,#297);
#295 = CARTESIAN_POINT('',(200.,-260.,270.));
#296 = DIRECTION('',(0.,0.,-1.));
#297 = DIRECTION('',(1.,0.,0.));
#298 = PCURVE('',#133,#299);
#299 = DEFINITIONAL_REPRESENTATION('',(#300),#304);
#300 = LINE('',#301,#302);
#301 = CARTESIAN_POINT('',(-6.28318530718,-260.));
#302 = VECTOR('',#303,1.);
#303 = DIRECTION('',(1.,-0.));
#304 = ( GEOMETRIC_REPRESENTATION_CONTEXT(2) 
PARAMETRIC_REPRESENTATION_CONTEXT() REPRESENTATION_CONTEXT('2D SPACE',''
  ) );
#305 = PCURVE('',#306,#311);
#306 = PLANE('',#307);
#307 = AXIS2_PLACEMENT_3D('',#308,#309,#310);
#308 = CARTESIAN_POINT('',(189.,-262.,270.));
#309 = DIRECTION('',(0.,0.,1.));
#310 = DIRECTION('',(1.,0.,0.));
#311 = DEFINITIONAL_REPRESENTATION('',(#312),#320);
#312 = ( BOUNDED_CURVE() B_SPLINE_CURVE(2,(#313,#314,#315,#316,#317,#318
,#319),.UNSPECIFIED.,.T.,.F.) B_SPLINE_CURVE_WITH_KNOTS((1,2,2,2,2,1),(
    -2.094395102393,0.,2.094395102393,4.188790204786,6.28318530718,
8.377580409573),.UNSPECIFIED.) CURVE() GEOMETRIC_REPRESENTATION_ITEM() 
RATIONAL_B_SPLINE_CURVE((1.,0.5,1.,0.5,1.,0.5,1.)) REPRESENTATION_ITEM(
  '') );
#313 = CARTESIAN_POINT('',(23.,2.));
#314 = CARTESIAN_POINT('',(23.,-18.78460969082));
#315 = CARTESIAN_POINT('',(5.,-8.392304845413));
#316 = CARTESIAN_POINT('',(-13.,2.));
#317 = CARTESIAN_POINT('',(5.,12.392304845413));
#318 = CARTESIAN_POINT('',(23.,22.784609690827));
#319 = CARTESIAN_POINT('',(23.,2.));
#320 = ( GEOMETRIC_REPRESENTATION_CONTEXT(2) 
PARAMETRIC_REPRESENTATION_CONTEXT() REPRESENTATION_CONTEXT('2D SPACE',''
  ) );
#321 = ADVANCED_FACE('',(#322),#187,.T.);
#322 = FACE_BOUND('',#323,.T.);
#323 = EDGE_LOOP('',(#324));
#324 = ORIENTED_EDGE('',*,*,#172,.T.);
#325 = ADVANCED_FACE('',(#326),#219,.F.);
#326 = FACE_BOUND('',#327,.F.);
#327 = EDGE_LOOP('',(#328,#358,#379,#380,#403,#431,#459,#487,#701));
#328 = ORIENTED_EDGE('',*,*,#329,.F.);
#329 = EDGE_CURVE('',#330,#332,#334,.T.);
#330 = VERTEX_POINT('',#331);
#331 = CARTESIAN_POINT('',(189.,-206.,292.));
#332 = VERTEX_POINT('',#333);
#333 = CARTESIAN_POINT('',(189.,-206.,300.));
#334 = SURFACE_CURVE('',#335,(#339,#346),.PCURVE_S1.);
#335 = LINE('',#336,#337);
#336 = CARTESIAN_POINT('',(189.,-206.,281.));
#337 = VECTOR('',#338,1.);
#338 = DIRECTION('',(0.,0.,1.));
#339 = PCURVE('',#219,#340);
#340 = DEFINITIONAL_REPRESENTATION('',(#341),#345);
#341 = LINE('',#342,#343);
#342 = CARTESIAN_POINT('',(0.,0.));
#343 = VECTOR('',#344,1.);
#344 = DIRECTION('',(1.,0.));
#345 = ( GEOMETRIC_REPRESENTATION_CONTEXT(2) 
PARAMETRIC_REPRESENTATION_CONTEXT() REPRESENTATION_CONTEXT('2D SPACE',''
  ) );
#346 = PCURVE('',#347,#352);
#347 = PLANE('',#348);
#348 = AXIS2_PLACEMENT_3D('',#349,#350,#351);
#349 = CARTESIAN_POINT('',(189.,-206.,281.));
#350 = DIRECTION('',(0.,1.,0.));
#351 = DIRECTION('',(0.,0.,1.));
#352 = DEFINITIONAL_REPRESENTATION('',(#353),#357);
#353 = LINE('',#354,#355);
#354 = CARTESIAN_POINT('',(0.,0.));
#355 = VECTOR('',#356,1.);
#356 = DIRECTION('',(1.,0.));
#357 = ( GEOMETRIC_REPRESENTATION_CONTEXT(2) 
PARAMETRIC_REPRESENTATION_CONTEXT() REPRESENTATION_CONTEXT('2D SPACE',''
  ) );
#358 = ORIENTED_EDGE('',*,*,#359,.F.);
#359 = EDGE_CURVE('',#203,#330,#360,.T.);
#360 = SURFACE_CURVE('',#361,(#365,#372),.PCURVE_S1.);
#361 = LINE('',#362,#363);
#362 = CARTESIAN_POINT('',(189.,-262.,292.));
#363 = VECTOR('',#364,1.);
#364 = DIRECTION('',(0.,1.,0.));
#365 = PCURVE('',#219,#366);
#366 = DEFINITIONAL_REPRESENTATION('',(#367),#371);
#367 = LINE('',#368,#369);
#368 = CARTESIAN_POINT('',(11.,56.));
#369 = VECTOR('',#370,1.);
#370 = DIRECTION('',(0.,-1.));
#371 = ( GEOMETRIC_REPRESENTATION_CONTEXT(2) 
PARAMETRIC_REPRESENTATION_CONTEXT() REPRESENTATION_CONTEXT('2D SPACE',''
  ) );
#372 = PCURVE('',#248,#373);
#373 = DEFINITIONAL_REPRESENTATION('',(#374),#378);
#374 = LINE('',#375,#376);
#375 = CARTESIAN_POINT('',(0.,0.));
#376 = VECTOR('',#377,1.);
#377 = DIRECTION('',(0.,1.));
#378 = ( GEOMETRIC_REPRESENTATION_CONTEXT(2) 
PARAMETRIC_REPRESENTATION_CONTEXT() REPRESENTATION_CONTEXT('2D SPACE',''
  ) );
#379 = ORIENTED_EDGE('',*,*,#202,.T.);
#380 = ORIENTED_EDGE('',*,*,#381,.T.);
#381 = EDGE_CURVE('',#205,#382,#384,.T.);
#382 = VERTEX_POINT('',#383);
#383 = CARTESIAN_POINT('',(189.,-188.,270.));
#384 = SURFACE_CURVE('',#385,(#389,#396),.PCURVE_S1.);
#385 = LINE('',#386,#387);
#386 = CARTESIAN_POINT('',(189.,-262.,270.));
#387 = VECTOR('',#388,1.);
#388 = DIRECTION('',(0.,1.,0.));
#389 = PCURVE('',#219,#390);
#390 = DEFINITIONAL_REPRESENTATION('',(#391),#395);
#391 = LINE('',#392,#393);
#392 = CARTESIAN_POINT('',(-11.,56.));
#393 = VECTOR('',#394,1.);
#394 = DIRECTION('',(0.,-1.));
#395 = ( GEOMETRIC_REPRESENTATION_CONTEXT(2) 
PARAMETRIC_REPRESENTATION_CONTEXT() REPRESENTATION_CONTEXT('2D SPACE',''
  ) );
#396 = PCURVE('',#306,#397);
#397 = DEFINITIONAL_REPRESENTATION('',(#398),#402);
#398 = LINE('',#399,#400);
#399 = CARTESIAN_POINT('',(0.,0.));
#400 = VECTOR('',#401,1.);
#401 = DIRECTION('',(0.,1.));
#402 = ( GEOMETRIC_REPRESENTATION_CONTEXT(2) 
PARAMETRIC_REPRESENTATION_CONTEXT() REPRESENTATION_CONTEXT('2D SPACE',''
  ) );
#403 = ORIENTED_EDGE('',*,*,#404,.T.);
#404 = EDGE_CURVE('',#382,#405,#407,.T.);
#405 = VERTEX_POINT('',#406);
#406 = CARTESIAN_POINT('',(189.,-188.,292.));
#407 = SURFACE_CURVE('',#408,(#412,#419),.PCURVE_S1.);
#408 = LINE('',#409,#410);
#409 = CARTESIAN_POINT('',(189.,-188.,270.));
#410 = VECTOR('',#411,1.);
#411 = DIRECTION('',(0.,0.,1.));
#412 = PCURVE('',#219,#413);
#413 = DEFINITIONAL_REPRESENTATION('',(#414),#418);
#414 = LINE('',#415,#416);
#415 = CARTESIAN_POINT('',(-11.,-18.));
#416 = VECTOR('',#417,1.);
#417 = DIRECTION('',(1.,0.));
#418 = ( GEOMETRIC_REPRESENTATION_CONTEXT(2) 
PARAMETRIC_REPRESENTATION_CONTEXT() REPRESENTATION_CONTEXT('2D SPACE',''
  ) );
#419 = PCURVE('',#420,#425);
#420 = PLANE('',#421);
#421 = AXIS2_PLACEMENT_3D('',#422,#423,#424);
#422 = CARTESIAN_POINT('',(189.,-188.,270.));
#423 = DIRECTION('',(0.,1.,0.));
#424 = DIRECTION('',(0.,0.,1.));
#425 = DEFINITIONAL_REPRESENTATION('',(#426),#430);
#426 = LINE('',#427,#428);
#427 = CARTESIAN_POINT('',(0.,0.));
#428 = VECTOR('',#429,1.);
#429 = DIRECTION('',(1.,0.));
#430 = ( GEOMETRIC_REPRESENTATION_CONTEXT(2) 
PARAMETRIC_REPRESENTATION_CONTEXT() REPRESENTATION_CONTEXT('2D SPACE',''
  ) );
#431 = ORIENTED_EDGE('',*,*,#432,.F.);
#432 = EDGE_CURVE('',#433,#405,#435,.T.);
#433 = VERTEX_POINT('',#434);
#434 = CARTESIAN_POINT('',(189.,-190.,292.));
#435 = SURFACE_CURVE('',#436,(#440,#447),.PCURVE_S1.);
#436 = LINE('',#437,#438);
#437 = CARTESIAN_POINT('',(189.,-262.,292.));
#438 = VECTOR('',#439,1.);
#439 = DIRECTION('',(0.,1.,0.));
#440 = PCURVE('',#219,#441);
#441 = DEFINITIONAL_REPRESENTATION('',(#442),#446);
#442 = LINE('',#443,#444);
#443 = CARTESIAN_POINT('',(11.,56.));
#444 = VECTOR('',#445,1.);
#445 = DIRECTION('',(0.,-1.));
#446 = ( GEOMETRIC_REPRESENTATION_CONTEXT(2) 
PARAMETRIC_REPRESENTATION_CONTEXT() REPRESENTATION_CONTEXT('2D SPACE',''
  ) );
#447 = PCURVE('',#448,#453);
#448 = PLANE('',#449);
#449 = AXIS2_PLACEMENT_3D('',#450,#451,#452);
#450 = CARTESIAN_POINT('',(189.,-262.,292.));
#451 = DIRECTION('',(0.,0.,1.));
#452 = DIRECTION('',(1.,0.,0.));
#453 = DEFINITIONAL_REPRESENTATION('',(#454),#458);
#454 = LINE('',#455,#456);
#455 = CARTESIAN_POINT('',(0.,0.));
#456 = VECTOR('',#457,1.);
#457 = DIRECTION('',(0.,1.));
#458 = ( GEOMETRIC_REPRESENTATION_CONTEXT(2) 
PARAMETRIC_REPRESENTATION_CONTEXT() REPRESENTATION_CONTEXT('2D SPACE',''
  ) );
#459 = ORIENTED_EDGE('',*,*,#460,.T.);
#460 = EDGE_CURVE('',#433,#461,#463,.T.);
#461 = VERTEX_POINT('',#462);
#462 = CARTESIAN_POINT('',(189.,-190.,296.39357066511));
#463 = SURFACE_CURVE('',#464,(#468,#475),.PCURVE_S1.);
#464 = LINE('',#465,#466);
#465 = CARTESIAN_POINT('',(189.,-190.,281.));
#466 = VECTOR('',#467,1.);
#467 = DIRECTION('',(0.,0.,1.));
#468 = PCURVE('',#219,#469);
#469 = DEFINITIONAL_REPRESENTATION('',(#470),#474);
#470 = LINE('',#471,#472);
#471 = CARTESIAN_POINT('',(0.,-16.));
#472 = VECTOR('',#473,1.);
#473 = DIRECTION('',(1.,0.));
#474 = ( GEOMETRIC_REPRESENTATION_CONTEXT(2) 
PARAMETRIC_REPRESENTATION_CONTEXT() REPRESENTATION_CONTEXT('2D SPACE',''
  ) );
#475 = PCURVE('',#476,#481);
#476 = PLANE('',#477);
#477 = AXIS2_PLACEMENT_3D('',#478,#479,#480);
#478 = CARTESIAN_POINT('',(189.,-190.,281.));
#479 = DIRECTION('',(0.,1.,0.));
#480 = DIRECTION('',(0.,0.,1.));
#481 = DEFINITIONAL_REPRESENTATION('',(#482),#486);
#482 = LINE('',#483,#484);
#483 = CARTESIAN_POINT('',(0.,0.));
#484 = VECTOR('',#485,1.);
#485 = DIRECTION('',(1.,0.));
#486 = ( GEOMETRIC_REPRESENTATION_CONTEXT(2) 
PARAMETRIC_REPRESENTATION_CONTEXT() REPRESENTATION_CONTEXT('2D SPACE',''
  ) );
#487 = ORIENTED_EDGE('',*,*,#488,.T.);
#488 = EDGE_CURVE('',#461,#489,#491,.T.);
#489 = VERTEX_POINT('',#490);
#490 = CARTESIAN_POINT('',(189.,-205.2936105461,300.));
#491 = SURFACE_CURVE('',#492,(#545,#601),.PCURVE_S1.);
#492 = B_SPLINE_CURVE_WITH_KNOTS('',6,(#493,#494,#495,#496,#497,#498,
    #499,#500,#501,#502,#503,#504,#505,#506,#507,#508,#509,#510,#511,
    #512,#513,#514,#515,#516,#517,#518,#519,#520,#521,#522,#523,#524,
    #525,#526,#527,#528,#529,#530,#531,#532,#533,#534,#535,#536,#537,
    #538,#539,#540,#541,#542,#543,#544),.UNSPECIFIED.,.F.,.F.,(7,5,5,5,5
    ,5,5,5,5,5,7),(0.208384002153,0.276945835916,0.349524274786,
    0.396137650777,0.427865179007,0.504441959287,0.610881929532,
    0.66123206855,0.744990940916,0.828534381896,1.),.UNSPECIFIED.);
#493 = CARTESIAN_POINT('',(189.,-190.0000000013,296.39357066582));
#494 = CARTESIAN_POINT('',(189.,-190.1413673335,296.11704679206));
#495 = CARTESIAN_POINT('',(189.,-190.2956722601,295.84713264025));
#496 = CARTESIAN_POINT('',(189.,-190.4625023146,295.58457636675));
#497 = CARTESIAN_POINT('',(189.,-190.6413906353,295.3300827285));
#498 = CARTESIAN_POINT('',(189.,-190.8318185457,295.08431428992));
#499 = CARTESIAN_POINT('',(189.,-191.2464164554,294.59762051668));
#500 = CARTESIAN_POINT('',(189.,-191.4719130748,294.35781836608));
#501 = CARTESIAN_POINT('',(189.,-191.7090344858,294.12922232364));
#502 = CARTESIAN_POINT('',(189.,-191.9570573802,293.91250349749));
#503 = CARTESIAN_POINT('',(189.,-192.2152112552,293.70827003466));
#504 = CARTESIAN_POINT('',(189.,-192.65446301,293.39427079287));
#505 = CARTESIAN_POINT('',(189.,-192.8300887184,293.27684734769));
#506 = CARTESIAN_POINT('',(189.,-193.0093428322,293.1649430813));
#507 = CARTESIAN_POINT('',(189.,-193.1920043482,293.05869077068));
#508 = CARTESIAN_POINT('',(189.,-193.377846573,292.95821175055));
#509 = CARTESIAN_POINT('',(189.,-193.6951379522,292.79922898513));
#510 = CARTESIAN_POINT('',(189.,-193.825004861,292.73756761637));
#511 = CARTESIAN_POINT('',(189.,-193.9561646779,292.67866643179));
#512 = CARTESIAN_POINT('',(189.,-194.0885433096,292.62255753415));
#513 = CARTESIAN_POINT('',(189.,-194.2220657402,292.56927050426));
#514 = CARTESIAN_POINT('',(189.,-194.6814998415,292.39709623776));
#515 = CARTESIAN_POINT('',(189.,-195.0125669417,292.29195530213));
#516 = CARTESIAN_POINT('',(189.,-195.348785412,292.2037913344));
#517 = CARTESIAN_POINT('',(189.,-195.6890642529,292.13289758742));
#518 = CARTESIAN_POINT('',(189.,-196.0322940993,292.07947922306));
#519 = CARTESIAN_POINT('',(189.,-196.8569648603,291.99385706482));
#520 = CARTESIAN_POINT('',(189.,-197.3401258306,291.97804799392));
#521 = CARTESIAN_POINT('',(189.,-197.8237871413,291.99654658922));
#522 = CARTESIAN_POINT('',(188.99999999999,-198.3049185408,
    292.04931921741));
#523 = CARTESIAN_POINT('',(189.,-198.7805026695,292.13601869871));
#524 = CARTESIAN_POINT('',(189.,-199.4684692413,292.31265213481));
#525 = CARTESIAN_POINT('',(189.,-199.6874879673,292.37680698766));
#526 = CARTESIAN_POINT('',(189.,-199.904283108,292.44831966711));
#527 = CARTESIAN_POINT('',(189.,-200.1185443718,292.5270985749));
#528 = CARTESIAN_POINT('',(189.,-200.3299662064,292.61303509758));
#529 = CARTESIAN_POINT('',(189.,-200.8847300847,292.86065933589));
#530 = CARTESIAN_POINT('',(189.,-201.2225283054,293.03477770759));
#531 = CARTESIAN_POINT('',(189.,-201.5502510734,293.22777561506));
#532 = CARTESIAN_POINT('',(189.,-201.8665691045,293.43894883297));
#533 = CARTESIAN_POINT('',(189.,-202.1702187874,293.66746872062));
#534 = CARTESIAN_POINT('',(189.,-202.7490473777,294.15665921044));
#535 = CARTESIAN_POINT('',(189.,-203.0243061282,294.41725292643));
#536 = CARTESIAN_POINT('',(189.,-203.2845963345,294.69320884075));
#537 = CARTESIAN_POINT('',(189.,-203.528829874,294.98347321144));
#538 = CARTESIAN_POINT('',(189.,-203.7560203765,295.28688789685));
#539 = CARTESIAN_POINT('',(189.,-204.3947897742,296.24931535214));
#540 = CARTESIAN_POINT('',(189.,-204.7489506615,296.94674793215));
#541 = CARTESIAN_POINT('',(189.,-205.0198150854,297.68322319536));
#542 = CARTESIAN_POINT('',(189.,-205.2023783484,298.44642122154));
#543 = CARTESIAN_POINT('',(189.,-205.2936105461,299.22333257208));
#544 = CARTESIAN_POINT('',(189.,-205.2936105461,300.));
#545 = PCURVE('',#219,#546);
#546 = DEFINITIONAL_REPRESENTATION('',(#547),#600);
#547 = B_SPLINE_CURVE_WITH_KNOTS('',6,(#548,#549,#550,#551,#552,#553,
    #554,#555,#556,#557,#558,#559,#560,#561,#562,#563,#564,#565,#566,
    #567,#568,#569,#570,#571,#572,#573,#574,#575,#576,#577,#578,#579,
    #580,#581,#582,#583,#584,#585,#586,#587,#588,#589,#590,#591,#592,
    #593,#594,#595,#596,#597,#598,#599),.UNSPECIFIED.,.F.,.F.,(7,5,5,5,5
    ,5,5,5,5,5,7),(0.208384002153,0.276945835916,0.349524274786,
    0.396137650777,0.427865179007,0.504441959287,0.610881929532,
    0.66123206855,0.744990940916,0.828534381896,1.),.UNSPECIFIED.);
#548 = CARTESIAN_POINT('',(15.393570665828,-15.99999999861));
#549 = CARTESIAN_POINT('',(15.117046792067,-15.8586326664));
#550 = CARTESIAN_POINT('',(14.847132640258,-15.70432773982));
#551 = CARTESIAN_POINT('',(14.584576366753,-15.5374976853));
#552 = CARTESIAN_POINT('',(14.330082728505,-15.35860936462));
#553 = CARTESIAN_POINT('',(14.084314289925,-15.16818145428));
#554 = CARTESIAN_POINT('',(13.597620516683,-14.75358354451));
#555 = CARTESIAN_POINT('',(13.35781836608,-14.52808692515));
#556 = CARTESIAN_POINT('',(13.129222323645,-14.29096551419));
#557 = CARTESIAN_POINT('',(12.912503497497,-14.04294261979));
#558 = CARTESIAN_POINT('',(12.708270034661,-13.78478874477));
#559 = CARTESIAN_POINT('',(12.394270792871,-13.34553698995));
#560 = CARTESIAN_POINT('',(12.276847347696,-13.16991128152));
#561 = CARTESIAN_POINT('',(12.164943081304,-12.99065716775));
#562 = CARTESIAN_POINT('',(12.058690770684,-12.80799565172));
#563 = CARTESIAN_POINT('',(11.958211750556,-12.62215342696));
#564 = CARTESIAN_POINT('',(11.799228985131,-12.30486204775));
#565 = CARTESIAN_POINT('',(11.737567616372,-12.17499513897));
#566 = CARTESIAN_POINT('',(11.678666431796,-12.04383532203));
#567 = CARTESIAN_POINT('',(11.622557534157,-11.91145669033));
#568 = CARTESIAN_POINT('',(11.56927050426,-11.77793425972));
#569 = CARTESIAN_POINT('',(11.397096237769,-11.31850015847));
#570 = CARTESIAN_POINT('',(11.291955302133,-10.98743305822));
#571 = CARTESIAN_POINT('',(11.203791334406,-10.65121458791));
#572 = CARTESIAN_POINT('',(11.132897587422,-10.31093574705));
#573 = CARTESIAN_POINT('',(11.079479223066,-9.967705900666));
#574 = CARTESIAN_POINT('',(10.993857064822,-9.143035139649));
#575 = CARTESIAN_POINT('',(10.978047993921,-8.659874169376));
#576 = CARTESIAN_POINT('',(10.996546589228,-8.176212858691));
#577 = CARTESIAN_POINT('',(11.049319217418,-7.695081459133));
#578 = CARTESIAN_POINT('',(11.136018698711,-7.219497330496));
#579 = CARTESIAN_POINT('',(11.312652134812,-6.531530758656));
#580 = CARTESIAN_POINT('',(11.376806987661,-6.312512032612));
#581 = CARTESIAN_POINT('',(11.448319667112,-6.095716891981));
#582 = CARTESIAN_POINT('',(11.527098574904,-5.88145562817));
#583 = CARTESIAN_POINT('',(11.613035097586,-5.670033793565));
#584 = CARTESIAN_POINT('',(11.860659335896,-5.115269915217));
#585 = CARTESIAN_POINT('',(12.034777707597,-4.777471694551));
#586 = CARTESIAN_POINT('',(12.227775615065,-4.449748926521));
#587 = CARTESIAN_POINT('',(12.438948832976,-4.133430895471));
#588 = CARTESIAN_POINT('',(12.66746872062,-3.829781212552));
#589 = CARTESIAN_POINT('',(13.156659210446,-3.250952622211));
#590 = CARTESIAN_POINT('',(13.417252926437,-2.975693871716));
#591 = CARTESIAN_POINT('',(13.693208840753,-2.715403665456));
#592 = CARTESIAN_POINT('',(13.983473211443,-2.471170125905));
#593 = CARTESIAN_POINT('',(14.286887896851,-2.243979623453));
#594 = CARTESIAN_POINT('',(15.249315352142,-1.605210225769));
#595 = CARTESIAN_POINT('',(15.94674793215,-1.251049338414));
#596 = CARTESIAN_POINT('',(16.683223195368,-0.980184914591));
#597 = CARTESIAN_POINT('',(17.446421221547,-0.797621651512));
#598 = CARTESIAN_POINT('',(18.223332572083,-0.70638945384));
#599 = CARTESIAN_POINT('',(19.,-0.70638945384));
#600 = ( GEOMETRIC_REPRESENTATION_CONTEXT(2) 
PARAMETRIC_REPRESENTATION_CONTEXT() REPRESENTATION_CONTEXT('2D SPACE',''
  ) );
#601 = PCURVE('',#602,#607);
#602 = TOROIDAL_SURFACE('',#603,78.,8.);
#603 = AXIS2_PLACEMENT_3D('',#604,#605,#606);
#604 = CARTESIAN_POINT('',(200.,-120.,300.));
#605 = DIRECTION('',(0.,0.,1.));
#606 = DIRECTION('',(-0.5,0.866025403784,0.));
#607 = DEFINITIONAL_REPRESENTATION('',(#608),#700);
#608 = B_SPLINE_CURVE_WITH_KNOTS('',3,(#609,#610,#611,#612,#613,#614,
    #615,#616,#617,#618,#619,#620,#621,#622,#623,#624,#625,#626,#627,
    #628,#629,#630,#631,#632,#633,#634,#635,#636,#637,#638,#639,#640,
    #641,#642,#643,#644,#645,#646,#647,#648,#649,#650,#651,#652,#653,
    #654,#655,#656,#657,#658,#659,#660,#661,#662,#663,#664,#665,#666,
    #667,#668,#669,#670,#671,#672,#673,#674,#675,#676,#677,#678,#679,
    #680,#681,#682,#683,#684,#685,#686,#687,#688,#689,#690,#691,#692,
    #693,#694,#695,#696,#697,#698,#699),.UNSPECIFIED.,.F.,.F.,(4,1,1,1,1
    ,1,1,1,1,1,1,1,1,1,1,1,1,1,1,1,1,1,1,1,1,1,1,1,1,1,1,1,1,1,1,1,1,1,1
    ,1,1,1,1,1,1,1,1,1,1,1,1,1,1,1,1,1,1,1,1,1,1,1,1,1,1,1,1,1,1,1,1,1,1
    ,1,1,1,1,1,1,1,1,1,1,1,1,1,1,1,4),(0.208384002153,0.217379638493,
    0.226375274832,0.235370911171,0.24436654751,0.253362183849,
    0.262357820188,0.271353456528,0.280349092867,0.289344729206,
    0.298340365545,0.307336001884,0.316331638223,0.325327274563,
    0.334322910902,0.343318547241,0.35231418358,0.361309819919,
    0.370305456258,0.379301092598,0.388296728937,0.397292365276,
    0.406288001615,0.415283637954,0.424279274293,0.433274910633,
    0.442270546972,0.451266183311,0.46026181965,0.469257455989,
    0.478253092328,0.487248728668,0.496244365007,0.505240001346,
    0.514235637685,0.523231274024,0.532226910363,0.541222546703,
    0.550218183042,0.559213819381,0.56820945572,0.577205092059,
    0.586200728398,0.595196364738,0.604192001077,0.613187637416,
    0.622183273755,0.631178910094,0.640174546433,0.649170182773,
    0.658165819112,0.667161455451,0.67615709179,0.685152728129,
    0.694148364468,0.703144000808,0.712139637147,0.721135273486,
    0.730130909825,0.739126546164,0.748122182503,0.757117818843,
    0.766113455182,0.775109091521,0.78410472786,0.793100364199,
    0.802096000538,0.811091636878,0.820087273217,0.829082909556,
    0.838078545895,0.847074182234,0.856069818573,0.865065454913,
    0.874061091252,0.883056727591,0.89205236393,0.901048000269,
    0.910043636608,0.919039272948,0.928034909287,0.937030545626,
    0.946026181965,0.955021818304,0.964017454643,0.973013090983,
    0.982008727322,0.991004363661,1.),.QUASI_UNIFORM_KNOTS.);
#609 = CARTESIAN_POINT('',(2.462125676596,3.609258131013));
#610 = CARTESIAN_POINT('',(2.462206945444,3.619419550417));
#611 = CARTESIAN_POINT('',(2.462374115144,3.639739454756));
#612 = CARTESIAN_POINT('',(2.462638362835,3.670210220855));
#613 = CARTESIAN_POINT('',(2.462915706633,3.700671572445));
#614 = CARTESIAN_POINT('',(2.463205729059,3.731123315252));
#615 = CARTESIAN_POINT('',(2.463508000496,3.761565306865));
#616 = CARTESIAN_POINT('',(2.463822078146,3.791997436562));
#617 = CARTESIAN_POINT('',(2.464147507829,3.822419621695));
#618 = CARTESIAN_POINT('',(2.464483823773,3.852831685071));
#619 = CARTESIAN_POINT('',(2.464830555044,3.883233831999));
#620 = CARTESIAN_POINT('',(2.46518721989,3.913626036279));
#621 = CARTESIAN_POINT('',(2.465553330844,3.944008373184));
#622 = CARTESIAN_POINT('',(2.465928395508,3.974380993636));
#623 = CARTESIAN_POINT('',(2.466311917417,4.004744101857));
#624 = CARTESIAN_POINT('',(2.46670339677,4.035097926244));
#625 = CARTESIAN_POINT('',(2.467102331468,4.065442716448));
#626 = CARTESIAN_POINT('',(2.467508216901,4.095778647013));
#627 = CARTESIAN_POINT('',(2.467920551013,4.126106131358));
#628 = CARTESIAN_POINT('',(2.46833883124,4.156425526862));
#629 = CARTESIAN_POINT('',(2.468762556688,4.186737215047));
#630 = CARTESIAN_POINT('',(2.469191229079,4.217041620396));
#631 = CARTESIAN_POINT('',(2.469624352811,4.247339161416));
#632 = CARTESIAN_POINT('',(2.470061436396,4.277630296014));
#633 = CARTESIAN_POINT('',(2.470501993052,4.307915513058));
#634 = CARTESIAN_POINT('',(2.470945540975,4.338195308447));
#635 = CARTESIAN_POINT('',(2.471391604146,4.368470200101));
#636 = CARTESIAN_POINT('',(2.471839713879,4.398740794958));
#637 = CARTESIAN_POINT('',(2.472289405506,4.42900753351));
#638 = CARTESIAN_POINT('',(2.472740222832,4.45927095459));
#639 = CARTESIAN_POINT('',(2.473191717372,4.489531619527));
#640 = CARTESIAN_POINT('',(2.473643448709,4.51979011112));
#641 = CARTESIAN_POINT('',(2.474094984294,4.550046997722));
#642 = CARTESIAN_POINT('',(2.474545900168,4.580302861493));
#643 = CARTESIAN_POINT('',(2.474995778387,4.610558105985));
#644 = CARTESIAN_POINT('',(2.475444216753,4.640813597506));
#645 = CARTESIAN_POINT('',(2.475890817354,4.671069884897));
#646 = CARTESIAN_POINT('',(2.476335188583,4.701327317828));
#647 = CARTESIAN_POINT('',(2.476776950263,4.731586384663));
#648 = CARTESIAN_POINT('',(2.477215732,4.761847595369));
#649 = CARTESIAN_POINT('',(2.477651173341,4.792111487436));
#650 = CARTESIAN_POINT('',(2.478082923425,4.822378599839));
#651 = CARTESIAN_POINT('',(2.478510640751,4.852649454756));
#652 = CARTESIAN_POINT('',(2.478933992947,4.882924540875));
#653 = CARTESIAN_POINT('',(2.479352656338,4.913204280954));
#654 = CARTESIAN_POINT('',(2.479766316279,4.943489056875));
#655 = CARTESIAN_POINT('',(2.480174664562,4.973779014352));
#656 = CARTESIAN_POINT('',(2.480577408913,5.004074770708));
#657 = CARTESIAN_POINT('',(2.480974263554,5.034376736825));
#658 = CARTESIAN_POINT('',(2.481364950847,5.064685230148));
#659 = CARTESIAN_POINT('',(2.481749202673,5.095000587369));
#660 = CARTESIAN_POINT('',(2.482126759433,5.125323095682));
#661 = CARTESIAN_POINT('',(2.482497370215,5.155653019922));
#662 = CARTESIAN_POINT('',(2.482860794779,5.185990769207));
#663 = CARTESIAN_POINT('',(2.483216797203,5.21633637702));
#664 = CARTESIAN_POINT('',(2.483565151804,5.246690007161));
#665 = CARTESIAN_POINT('',(2.483905641392,5.277051820211));
#666 = CARTESIAN_POINT('',(2.484238057227,5.307421980598));
#667 = CARTESIAN_POINT('',(2.484562198562,5.337800628494));
#668 = CARTESIAN_POINT('',(2.484877872169,5.368187847159));
#669 = CARTESIAN_POINT('',(2.485184892374,5.398583680875));
#670 = CARTESIAN_POINT('',(2.485483079131,5.428987954207));
#671 = CARTESIAN_POINT('',(2.485772265181,5.459401013586));
#672 = CARTESIAN_POINT('',(2.486052285864,5.48982268404));
#673 = CARTESIAN_POINT('',(2.486322984356,5.520252837247));
#674 = CARTESIAN_POINT('',(2.486584211469,5.550691383647));
#675 = CARTESIAN_POINT('',(2.486835825213,5.581138239338));
#676 = CARTESIAN_POINT('',(2.487077690579,5.61159331938));
#677 = CARTESIAN_POINT('',(2.487309678757,5.642056445381));
#678 = CARTESIAN_POINT('',(2.487531668482,5.672527566286));
#679 = CARTESIAN_POINT('',(2.487743539491,5.703005810827));
#680 = CARTESIAN_POINT('',(2.487945195728,5.733492933628));
#681 = CARTESIAN_POINT('',(2.488136534606,5.763989045123));
#682 = CARTESIAN_POINT('',(2.488317450453,5.794492699409));
#683 = CARTESIAN_POINT('',(2.488487849245,5.82500315232));
#684 = CARTESIAN_POINT('',(2.488647643815,5.855519708514));
#685 = CARTESIAN_POINT('',(2.488796754387,5.886041852437));
#686 = CARTESIAN_POINT('',(2.488935107771,5.916569172644));
#687 = CARTESIAN_POINT('',(2.489062637021,5.947101344318));
#688 = CARTESIAN_POINT('',(2.48917928105,5.97763809841));
#689 = CARTESIAN_POINT('',(2.489284984345,6.008179195954));
#690 = CARTESIAN_POINT('',(2.489379696748,6.038724401908));
#691 = CARTESIAN_POINT('',(2.489463373301,6.069273459354));
#692 = CARTESIAN_POINT('',(2.489535974161,6.099826063108));
#693 = CARTESIAN_POINT('',(2.489597464575,6.130381832549));
#694 = CARTESIAN_POINT('',(2.489647814945,6.160940282068));
#695 = CARTESIAN_POINT('',(2.489687000882,6.191500792694));
#696 = CARTESIAN_POINT('',(2.489715003602,6.222062569249));
#697 = CARTESIAN_POINT('',(2.489731809378,6.252624639309));
#698 = CARTESIAN_POINT('',(2.489735545017,6.272998667749));
#699 = CARTESIAN_POINT('',(2.489735544491,6.28318530718));
#700 = ( GEOMETRIC_REPRESENTATION_CONTEXT(2) 
PARAMETRIC_REPRESENTATION_CONTEXT() REPRESENTATION_CONTEXT('2D SPACE',''
  ) );
#701 = ORIENTED_EDGE('',*,*,#702,.F.);
#702 = EDGE_CURVE('',#332,#489,#703,.T.);
#703 = SURFACE_CURVE('',#704,(#708,#715),.PCURVE_S1.);
#704 = LINE('',#705,#706);
#705 = CARTESIAN_POINT('',(189.,-206.,300.));
#706 = VECTOR('',#707,1.);
#707 = DIRECTION('',(0.,1.,0.));
#708 = PCURVE('',#219,#709);
#709 = DEFINITIONAL_REPRESENTATION('',(#710),#714);
#710 = LINE('',#711,#712);
#711 = CARTESIAN_POINT('',(19.,0.));
#712 = VECTOR('',#713,1.);
#713 = DIRECTION('',(0.,-1.));
#714 = ( GEOMETRIC_REPRESENTATION_CONTEXT(2) 
PARAMETRIC_REPRESENTATION_CONTEXT() REPRESENTATION_CONTEXT('2D SPACE',''
  ) );
#715 = PCURVE('',#716,#721);
#716 = PLANE('',#717);
#717 = AXIS2_PLACEMENT_3D('',#718,#719,#720);
#718 = CARTESIAN_POINT('',(189.,-206.,300.));
#719 = DIRECTION('',(0.,0.,1.));
#720 = DIRECTION('',(1.,0.,0.));
#721 = DEFINITIONAL_REPRESENTATION('',(#722),#726);
#722 = LINE('',#723,#724);
#723 = CARTESIAN_POINT('',(0.,0.));
#724 = VECTOR('',#725,1.);
#725 = DIRECTION('',(0.,1.));
#726 = ( GEOMETRIC_REPRESENTATION_CONTEXT(2) 
PARAMETRIC_REPRESENTATION_CONTEXT() REPRESENTATION_CONTEXT('2D SPACE',''
  ) );
#727 = ADVANCED_FACE('',(#728),#306,.F.);
#728 = FACE_BOUND('',#729,.F.);
#729 = EDGE_LOOP('',(#730,#731,#732,#755));
#730 = ORIENTED_EDGE('',*,*,#381,.F.);
#731 = ORIENTED_EDGE('',*,*,#291,.T.);
#732 = ORIENTED_EDGE('',*,*,#733,.T.);
#733 = EDGE_CURVE('',#265,#734,#736,.T.);
#734 = VERTEX_POINT('',#735);
#735 = CARTESIAN_POINT('',(211.,-188.,270.));
#736 = SURFACE_CURVE('',#737,(#741,#748),.PCURVE_S1.);
#737 = LINE('',#738,#739);
#738 = CARTESIAN_POINT('',(211.,-262.,270.));
#739 = VECTOR('',#740,1.);
#740 = DIRECTION('',(0.,1.,0.));
#741 = PCURVE('',#306,#742);
#742 = DEFINITIONAL_REPRESENTATION('',(#743),#747);
#743 = LINE('',#744,#745);
#744 = CARTESIAN_POINT('',(22.,0.));
#745 = VECTOR('',#746,1.);
#746 = DIRECTION('',(0.,1.));
#747 = ( GEOMETRIC_REPRESENTATION_CONTEXT(2) 
PARAMETRIC_REPRESENTATION_CONTEXT() REPRESENTATION_CONTEXT('2D SPACE',''
  ) );
#748 = PCURVE('',#279,#749);
#749 = DEFINITIONAL_REPRESENTATION('',(#750),#754);
#750 = LINE('',#751,#752);
#751 = CARTESIAN_POINT('',(-11.,56.));
#752 = VECTOR('',#753,1.);
#753 = DIRECTION('',(0.,-1.));
#754 = ( GEOMETRIC_REPRESENTATION_CONTEXT(2) 
PARAMETRIC_REPRESENTATION_CONTEXT() REPRESENTATION_CONTEXT('2D SPACE',''
  ) );
#755 = ORIENTED_EDGE('',*,*,#756,.F.);
#756 = EDGE_CURVE('',#382,#734,#757,.T.);
#757 = SURFACE_CURVE('',#758,(#762,#769),.PCURVE_S1.);
#758 = LINE('',#759,#760);
#759 = CARTESIAN_POINT('',(189.,-188.,270.));
#760 = VECTOR('',#761,1.);
#761 = DIRECTION('',(1.,0.,0.));
#762 = PCURVE('',#306,#763);
#763 = DEFINITIONAL_REPRESENTATION('',(#764),#768);
#764 = LINE('',#765,#766);
#765 = CARTESIAN_POINT('',(0.,74.));
#766 = VECTOR('',#767,1.);
#767 = DIRECTION('',(1.,0.));
#768 = ( GEOMETRIC_REPRESENTATION_CONTEXT(2) 
PARAMETRIC_REPRESENTATION_CONTEXT() REPRESENTATION_CONTEXT('2D SPACE',''
  ) );
#769 = PCURVE('',#420,#770);
#770 = DEFINITIONAL_REPRESENTATION('',(#771),#775);
#771 = LINE('',#772,#773);
#772 = CARTESIAN_POINT('',(0.,0.));
#773 = VECTOR('',#774,1.);
#774 = DIRECTION('',(0.,1.));
#775 = ( GEOMETRIC_REPRESENTATION_CONTEXT(2) 
PARAMETRIC_REPRESENTATION_CONTEXT() REPRESENTATION_CONTEXT('2D SPACE',''
  ) );
#776 = ADVANCED_FACE('',(#777),#279,.T.);
#777 = FACE_BOUND('',#778,.T.);
#778 = EDGE_LOOP('',(#779,#990,#1018,#1041,#1062,#1063,#1064,#1087,#1110
    ));
#779 = ORIENTED_EDGE('',*,*,#780,.F.);
#780 = EDGE_CURVE('',#781,#783,#785,.T.);
#781 = VERTEX_POINT('',#782);
#782 = CARTESIAN_POINT('',(210.99999999999,-205.2936105461,300.));
#783 = VERTEX_POINT('',#784);
#784 = CARTESIAN_POINT('',(211.,-190.,296.39357066511));
#785 = SURFACE_CURVE('',#786,(#839,#895),.PCURVE_S1.);
#786 = B_SPLINE_CURVE_WITH_KNOTS('',6,(#787,#788,#789,#790,#791,#792,
    #793,#794,#795,#796,#797,#798,#799,#800,#801,#802,#803,#804,#805,
    #806,#807,#808,#809,#810,#811,#812,#813,#814,#815,#816,#817,#818,
    #819,#820,#821,#822,#823,#824,#825,#826,#827,#828,#829,#830,#831,
    #832,#833,#834,#835,#836,#837,#838),.UNSPECIFIED.,.F.,.F.,(7,5,5,5,5
    ,5,5,5,5,5,7),(0.535515378077,0.706980996107,0.790524437087,
    0.874283309452,0.92463344847,1.031073418715,1.107650198995,
    1.139377727225,1.185991103216,1.258569542087,1.327131375924),
  .UNSPECIFIED.);
#787 = CARTESIAN_POINT('',(211.,-205.2936105461,300.));
#788 = CARTESIAN_POINT('',(211.,-205.2936105461,299.22333257241));
#789 = CARTESIAN_POINT('',(211.,-205.2023783485,298.44642122221));
#790 = CARTESIAN_POINT('',(211.,-205.0198150856,297.68322319636));
#791 = CARTESIAN_POINT('',(211.,-204.748950662,296.94674793342));
#792 = CARTESIAN_POINT('',(211.,-204.3947897749,296.24931535365));
#793 = CARTESIAN_POINT('',(211.,-203.7560203777,295.28688789848));
#794 = CARTESIAN_POINT('',(211.,-203.5288298753,294.98347321301));
#795 = CARTESIAN_POINT('',(211.,-203.2845963358,294.69320884226));
#796 = CARTESIAN_POINT('',(211.,-203.0243061297,294.41725292788));
#797 = CARTESIAN_POINT('',(211.,-202.7490473792,294.15665921182));
#798 = CARTESIAN_POINT('',(211.,-202.170218789,293.66746872185));
#799 = CARTESIAN_POINT('',(211.,-201.8665691061,293.43894883413));
#800 = CARTESIAN_POINT('',(211.,-201.5502510751,293.22777561614));
#801 = CARTESIAN_POINT('',(211.,-201.2225283072,293.03477770859));
#802 = CARTESIAN_POINT('',(211.,-200.8847300865,292.8606593368));
#803 = CARTESIAN_POINT('',(211.,-200.3299662083,292.61303509836));
#804 = CARTESIAN_POINT('',(211.,-200.1185443737,292.52709857562));
#805 = CARTESIAN_POINT('',(211.,-199.9042831099,292.44831966778));
#806 = CARTESIAN_POINT('',(211.,-199.6874879693,292.37680698827));
#807 = CARTESIAN_POINT('',(211.,-199.4684692432,292.31265213537));
#808 = CARTESIAN_POINT('',(211.,-198.7805026715,292.13601869911));
#809 = CARTESIAN_POINT('',(211.,-198.3049185428,292.04931921768));
#810 = CARTESIAN_POINT('',(211.,-197.8237871433,291.99654658938));
#811 = CARTESIAN_POINT('',(211.,-197.3401258326,291.97804799395));
#812 = CARTESIAN_POINT('',(211.,-196.8569648623,291.99385706473));
#813 = CARTESIAN_POINT('',(211.,-196.0322941013,292.07947922277));
#814 = CARTESIAN_POINT('',(211.,-195.6890642549,292.13289758704));
#815 = CARTESIAN_POINT('',(211.,-195.348785414,292.20379133394));
#816 = CARTESIAN_POINT('',(211.,-195.0125669437,292.29195530158));
#817 = CARTESIAN_POINT('',(211.,-194.6814998434,292.39709623713));
#818 = CARTESIAN_POINT('',(211.,-194.2220657421,292.56927050351));
#819 = CARTESIAN_POINT('',(211.,-194.0885433115,292.62255753337));
#820 = CARTESIAN_POINT('',(211.,-193.9561646798,292.67866643098));
#821 = CARTESIAN_POINT('',(211.,-193.8250048628,292.73756761552));
#822 = CARTESIAN_POINT('',(211.,-193.695137954,292.79922898425));
#823 = CARTESIAN_POINT('',(211.,-193.3778465748,292.95821174959));
#824 = CARTESIAN_POINT('',(211.,-193.19200435,293.05869076968));
#825 = CARTESIAN_POINT('',(211.,-193.0093428339,293.16494308025));
#826 = CARTESIAN_POINT('',(211.,-192.8300887201,293.2768473466));
#827 = CARTESIAN_POINT('',(211.,-192.6544630117,293.39427079173));
#828 = CARTESIAN_POINT('',(211.,-192.2152112568,293.70827003341));
#829 = CARTESIAN_POINT('',(211.,-191.9570573817,293.91250349618));
#830 = CARTESIAN_POINT('',(211.,-191.7090344873,294.12922232227));
#831 = CARTESIAN_POINT('',(211.,-191.4719130762,294.35781836465));
#832 = CARTESIAN_POINT('',(211.,-191.2464164568,294.59762051519));
#833 = CARTESIAN_POINT('',(211.,-190.8318185467,295.08431428859));
#834 = CARTESIAN_POINT('',(211.,-190.6413906361,295.3300827274));
#835 = CARTESIAN_POINT('',(211.,-190.4625023152,295.58457636589));
#836 = CARTESIAN_POINT('',(211.,-190.2956722605,295.84713263967));
#837 = CARTESIAN_POINT('',(211.,-190.1413673337,296.11704679176));
#838 = CARTESIAN_POINT('',(211.,-190.0000000013,296.39357066582));
#839 = PCURVE('',#279,#840);
#840 = DEFINITIONAL_REPRESENTATION('',(#841),#894);
#841 = B_SPLINE_CURVE_WITH_KNOTS('',6,(#842,#843,#844,#845,#846,#847,
    #848,#849,#850,#851,#852,#853,#854,#855,#856,#857,#858,#859,#860,
    #861,#862,#863,#864,#865,#866,#867,#868,#869,#870,#871,#872,#873,
    #874,#875,#876,#877,#878,#879,#880,#881,#882,#883,#884,#885,#886,
    #887,#888,#889,#890,#891,#892,#893),.UNSPECIFIED.,.F.,.F.,(7,5,5,5,5
    ,5,5,5,5,5,7),(0.535515378077,0.706980996107,0.790524437087,
    0.874283309452,0.92463344847,1.031073418715,1.107650198995,
    1.139377727225,1.185991103216,1.258569542087,1.327131375924),
  .UNSPECIFIED.);
#842 = CARTESIAN_POINT('',(19.,-0.70638945384));
#843 = CARTESIAN_POINT('',(18.223332572419,-0.70638945384));
#844 = CARTESIAN_POINT('',(17.446421222219,-0.797621651433));
#845 = CARTESIAN_POINT('',(16.68322319636,-0.980184914355));
#846 = CARTESIAN_POINT('',(15.946747933425,-1.251049337945));
#847 = CARTESIAN_POINT('',(15.249315353651,-1.605210225003));
#848 = CARTESIAN_POINT('',(14.28688789848,-2.243979622257));
#849 = CARTESIAN_POINT('',(13.983473213015,-2.471170124633));
#850 = CARTESIAN_POINT('',(13.693208842265,-2.71540366411));
#851 = CARTESIAN_POINT('',(13.417252927884,-2.975693870299));
#852 = CARTESIAN_POINT('',(13.156659211823,-3.250952620728));
#853 = CARTESIAN_POINT('',(12.667468721853,-3.829781210945));
#854 = CARTESIAN_POINT('',(12.438948834133,-4.133430893806));
#855 = CARTESIAN_POINT('',(12.227775616143,-4.449748924802));
#856 = CARTESIAN_POINT('',(12.034777708594,-4.777471692784));
#857 = CARTESIAN_POINT('',(11.860659336808,-5.115269913405));
#858 = CARTESIAN_POINT('',(11.613035098361,-5.67003379169));
#859 = CARTESIAN_POINT('',(11.527098575626,-5.881455626273));
#860 = CARTESIAN_POINT('',(11.448319667781,-6.095716890064));
#861 = CARTESIAN_POINT('',(11.376806988275,-6.312512030676));
#862 = CARTESIAN_POINT('',(11.312652135372,-6.531530756704));
#863 = CARTESIAN_POINT('',(11.136018699112,-7.219497328498));
#864 = CARTESIAN_POINT('',(11.049319217682,-7.695081457115));
#865 = CARTESIAN_POINT('',(10.99654658938,-8.176212856659));
#866 = CARTESIAN_POINT('',(10.97804799395,-8.659874167338));
#867 = CARTESIAN_POINT('',(10.993857064731,-9.143035137615));
#868 = CARTESIAN_POINT('',(11.07947922277,-9.967705898653));
#869 = CARTESIAN_POINT('',(11.13289758704,-10.31093574505));
#870 = CARTESIAN_POINT('',(11.20379133394,-10.65121458593));
#871 = CARTESIAN_POINT('',(11.291955301584,-10.98743305626));
#872 = CARTESIAN_POINT('',(11.397096237137,-11.31850015654));
#873 = CARTESIAN_POINT('',(11.569270503514,-11.77793425783));
#874 = CARTESIAN_POINT('',(11.622557533378,-11.91145668845));
#875 = CARTESIAN_POINT('',(11.678666430983,-12.04383532017));
#876 = CARTESIAN_POINT('',(11.737567615527,-12.17499513712));
#877 = CARTESIAN_POINT('',(11.799228984254,-12.30486204592));
#878 = CARTESIAN_POINT('',(11.958211749599,-12.62215342517));
#879 = CARTESIAN_POINT('',(12.058690769681,-12.80799564996));
#880 = CARTESIAN_POINT('',(12.164943080256,-12.99065716601));
#881 = CARTESIAN_POINT('',(12.276847346604,-13.16991127981));
#882 = CARTESIAN_POINT('',(12.394270791735,-13.34553698827));
#883 = CARTESIAN_POINT('',(12.708270033415,-13.78478874317));
#884 = CARTESIAN_POINT('',(12.912503496187,-14.04294261824));
#885 = CARTESIAN_POINT('',(13.129222322274,-14.29096551269));
#886 = CARTESIAN_POINT('',(13.35781836465,-14.52808692372));
#887 = CARTESIAN_POINT('',(13.597620515197,-14.75358354313));
#888 = CARTESIAN_POINT('',(14.084314288592,-15.16818145324));
#889 = CARTESIAN_POINT('',(14.3300827274,-15.35860936385));
#890 = CARTESIAN_POINT('',(14.584576365898,-15.53749768476));
#891 = CARTESIAN_POINT('',(14.847132639672,-15.70432773948));
#892 = CARTESIAN_POINT('',(15.117046791767,-15.85863266625));
#893 = CARTESIAN_POINT('',(15.393570665828,-15.99999999861));
#894 = ( GEOMETRIC_REPRESENTATION_CONTEXT(2) 
PARAMETRIC_REPRESENTATION_CONTEXT() REPRESENTATION_CONTEXT('2D SPACE',''
  ) );
#895 = PCURVE('',#602,#896);
#896 = DEFINITIONAL_REPRESENTATION('',(#897),#989);
#897 = B_SPLINE_CURVE_WITH_KNOTS('',3,(#898,#899,#900,#901,#902,#903,
    #904,#905,#906,#907,#908,#909,#910,#911,#912,#913,#914,#915,#916,
    #917,#918,#919,#920,#921,#922,#923,#924,#925,#926,#927,#928,#929,
    #930,#931,#932,#933,#934,#935,#936,#937,#938,#939,#940,#941,#942,
    #943,#944,#945,#946,#947,#948,#949,#950,#951,#952,#953,#954,#955,
    #956,#957,#958,#959,#960,#961,#962,#963,#964,#965,#966,#967,#968,
    #969,#970,#971,#972,#973,#974,#975,#976,#977,#978,#979,#980,#981,
    #982,#983,#984,#985,#986,#987,#988),.UNSPECIFIED.,.F.,.F.,(4,1,1,1,1
    ,1,1,1,1,1,1,1,1,1,1,1,1,1,1,1,1,1,1,1,1,1,1,1,1,1,1,1,1,1,1,1,1,1,1
    ,1,1,1,1,1,1,1,1,1,1,1,1,1,1,1,1,1,1,1,1,1,1,1,1,1,1,1,1,1,1,1,1,1,1
    ,1,1,1,1,1,1,1,1,1,1,1,1,1,1,1,4),(0.535515378077,0.544511014416,
    0.553506650756,0.562502287095,0.571497923434,0.580493559773,
    0.589489196112,0.598484832451,0.607480468791,0.61647610513,
    0.625471741469,0.634467377808,0.643463014147,0.652458650486,
    0.661454286825,0.670449923165,0.679445559504,0.688441195843,
    0.697436832182,0.706432468521,0.71542810486,0.7244237412,
    0.733419377539,0.742415013878,0.751410650217,0.760406286556,
    0.769401922895,0.778397559235,0.787393195574,0.796388831913,
    0.805384468252,0.814380104591,0.82337574093,0.83237137727,
    0.841367013609,0.850362649948,0.859358286287,0.868353922626,
    0.877349558965,0.886345195305,0.895340831644,0.904336467983,
    0.913332104322,0.922327740661,0.931323377,0.94031901334,
    0.949314649679,0.958310286018,0.967305922357,0.976301558696,
    0.985297195035,0.994292831375,1.003288467714,1.012284104053,
    1.021279740392,1.030275376731,1.03927101307,1.04826664941,
    1.057262285749,1.066257922088,1.075253558427,1.084249194766,
    1.093244831105,1.102240467445,1.111236103784,1.120231740123,
    1.129227376462,1.138223012801,1.14721864914,1.15621428548,
    1.165209921819,1.174205558158,1.183201194497,1.192196830836,
    1.201192467175,1.210188103515,1.219183739854,1.228179376193,
    1.237175012532,1.246170648871,1.25516628521,1.26416192155,
    1.273157557889,1.282153194228,1.291148830567,1.300144466906,
    1.309140103245,1.318135739585,1.327131375924),
  .QUASI_UNIFORM_KNOTS.);
#898 = CARTESIAN_POINT('',(2.746252211492,6.28318530718));
#899 = CARTESIAN_POINT('',(2.746252210966,6.272998667749));
#900 = CARTESIAN_POINT('',(2.746255946605,6.252624639309));
#901 = CARTESIAN_POINT('',(2.746272752381,6.222062569249));
#902 = CARTESIAN_POINT('',(2.746300755101,6.191500792694));
#903 = CARTESIAN_POINT('',(2.746339941038,6.160940282068));
#904 = CARTESIAN_POINT('',(2.746390291408,6.130381832549));
#905 = CARTESIAN_POINT('',(2.746451781822,6.099826063108));
#906 = CARTESIAN_POINT('',(2.746524382682,6.069273459354));
#907 = CARTESIAN_POINT('',(2.746608059235,6.038724401907));
#908 = CARTESIAN_POINT('',(2.746702771638,6.008179195954));
#909 = CARTESIAN_POINT('',(2.746808474933,5.977638098409));
#910 = CARTESIAN_POINT('',(2.746925118962,5.947101344318));
#911 = CARTESIAN_POINT('',(2.747052648212,5.916569172644));
#912 = CARTESIAN_POINT('',(2.747191001596,5.886041852436));
#913 = CARTESIAN_POINT('',(2.747340112168,5.855519708513));
#914 = CARTESIAN_POINT('',(2.747499906738,5.82500315232));
#915 = CARTESIAN_POINT('',(2.74767030553,5.794492699408));
#916 = CARTESIAN_POINT('',(2.747851221377,5.763989045123));
#917 = CARTESIAN_POINT('',(2.748042560255,5.733492933628));
#918 = CARTESIAN_POINT('',(2.748244216492,5.703005810827));
#919 = CARTESIAN_POINT('',(2.748456087501,5.672527566286));
#920 = CARTESIAN_POINT('',(2.748678077226,5.64205644538));
#921 = CARTESIAN_POINT('',(2.748910065404,5.61159331938));
#922 = CARTESIAN_POINT('',(2.74915193077,5.581138239337));
#923 = CARTESIAN_POINT('',(2.749403544514,5.550691383647));
#924 = CARTESIAN_POINT('',(2.749664771627,5.520252837246));
#925 = CARTESIAN_POINT('',(2.749935470119,5.48982268404));
#926 = CARTESIAN_POINT('',(2.750215490802,5.459401013585));
#927 = CARTESIAN_POINT('',(2.750504676852,5.428987954207));
#928 = CARTESIAN_POINT('',(2.750802863609,5.398583680875));
#929 = CARTESIAN_POINT('',(2.751109883814,5.368187847159));
#930 = CARTESIAN_POINT('',(2.751425557421,5.337800628493));
#931 = CARTESIAN_POINT('',(2.751749698756,5.307421980598));
#932 = CARTESIAN_POINT('',(2.752082114591,5.277051820211));
#933 = CARTESIAN_POINT('',(2.752422604179,5.24669000716));
#934 = CARTESIAN_POINT('',(2.75277095878,5.216336377019));
#935 = CARTESIAN_POINT('',(2.753126961204,5.185990769207));
#936 = CARTESIAN_POINT('',(2.753490385768,5.155653019922));
#937 = CARTESIAN_POINT('',(2.75386099655,5.125323095681));
#938 = CARTESIAN_POINT('',(2.75423855331,5.095000587368));
#939 = CARTESIAN_POINT('',(2.754622805136,5.064685230147));
#940 = CARTESIAN_POINT('',(2.755013492429,5.034376736824));
#941 = CARTESIAN_POINT('',(2.75541034707,5.004074770707));
#942 = CARTESIAN_POINT('',(2.755813091421,4.973779014351));
#943 = CARTESIAN_POINT('',(2.756221439704,4.943489056875));
#944 = CARTESIAN_POINT('',(2.756635099645,4.913204280953));
#945 = CARTESIAN_POINT('',(2.757053763036,4.882924540874));
#946 = CARTESIAN_POINT('',(2.757477115232,4.852649454755));
#947 = CARTESIAN_POINT('',(2.757904832558,4.822378599838));
#948 = CARTESIAN_POINT('',(2.758336582642,4.792111487436));
#949 = CARTESIAN_POINT('',(2.758772023983,4.761847595368));
#950 = CARTESIAN_POINT('',(2.75921080572,4.731586384662));
#951 = CARTESIAN_POINT('',(2.7596525674,4.701327317827));
#952 = CARTESIAN_POINT('',(2.760096938629,4.671069884896));
#953 = CARTESIAN_POINT('',(2.76054353923,4.640813597505));
#954 = CARTESIAN_POINT('',(2.760991977596,4.610558105985));
#955 = CARTESIAN_POINT('',(2.761441855815,4.580302861492));
#956 = CARTESIAN_POINT('',(2.761892771689,4.550046997721));
#957 = CARTESIAN_POINT('',(2.762344307274,4.519790111119));
#958 = CARTESIAN_POINT('',(2.762796038611,4.489531619526));
#959 = CARTESIAN_POINT('',(2.763247533151,4.459270954589));
#960 = CARTESIAN_POINT('',(2.763698350477,4.42900753351));
#961 = CARTESIAN_POINT('',(2.764148042104,4.398740794957));
#962 = CARTESIAN_POINT('',(2.764596151837,4.3684702001));
#963 = CARTESIAN_POINT('',(2.765042215008,4.338195308447));
#964 = CARTESIAN_POINT('',(2.765485762931,4.307915513058));
#965 = CARTESIAN_POINT('',(2.765926319587,4.277630296013));
#966 = CARTESIAN_POINT('',(2.766363403172,4.247339161415));
#967 = CARTESIAN_POINT('',(2.766796526904,4.217041620395));
#968 = CARTESIAN_POINT('',(2.767225199295,4.186737215046));
#969 = CARTESIAN_POINT('',(2.767648924743,4.156425526862));
#970 = CARTESIAN_POINT('',(2.76806720497,4.126106131357));
#971 = CARTESIAN_POINT('',(2.768479539082,4.095778647012));
#972 = CARTESIAN_POINT('',(2.768885424515,4.065442716448));
#973 = CARTESIAN_POINT('',(2.769284359213,4.035097926243));
#974 = CARTESIAN_POINT('',(2.769675838566,4.004744101857));
#975 = CARTESIAN_POINT('',(2.770059360475,3.974380993636));
#976 = CARTESIAN_POINT('',(2.770434425139,3.944008373184));
#977 = CARTESIAN_POINT('',(2.770800536093,3.913626036279));
#978 = CARTESIAN_POINT('',(2.771157200939,3.883233831999));
#979 = CARTESIAN_POINT('',(2.77150393221,3.852831685071));
#980 = CARTESIAN_POINT('',(2.771840248154,3.822419621695));
#981 = CARTESIAN_POINT('',(2.772165677837,3.791997436561));
#982 = CARTESIAN_POINT('',(2.772479755487,3.761565306865));
#983 = CARTESIAN_POINT('',(2.772782026924,3.731123315252));
#984 = CARTESIAN_POINT('',(2.77307204935,3.700671572445));
#985 = CARTESIAN_POINT('',(2.773349393148,3.670210220855));
#986 = CARTESIAN_POINT('',(2.773613640839,3.639739454756));
#987 = CARTESIAN_POINT('',(2.773780810539,3.619419550417));
#988 = CARTESIAN_POINT('',(2.773862079387,3.609258131013));
#989 = ( GEOMETRIC_REPRESENTATION_CONTEXT(2) 
PARAMETRIC_REPRESENTATION_CONTEXT() REPRESENTATION_CONTEXT('2D SPACE',''
  ) );
#990 = ORIENTED_EDGE('',*,*,#991,.F.);
#991 = EDGE_CURVE('',#992,#781,#994,.T.);
#992 = VERTEX_POINT('',#993);
#993 = CARTESIAN_POINT('',(211.,-206.,300.));
#994 = SURFACE_CURVE('',#995,(#999,#1006),.PCURVE_S1.);
#995 = LINE('',#996,#997);
#996 = CARTESIAN_POINT('',(211.,-206.,300.));
#997 = VECTOR('',#998,1.);
#998 = DIRECTION('',(0.,1.,0.));
#999 = PCURVE('',#279,#1000);
#1000 = DEFINITIONAL_REPRESENTATION('',(#1001),#1005);
#1001 = LINE('',#1002,#1003);
#1002 = CARTESIAN_POINT('',(19.,0.));
#1003 = VECTOR('',#1004,1.);
#1004 = DIRECTION('',(0.,-1.));
#1005 = ( GEOMETRIC_REPRESENTATION_CONTEXT(2) 
PARAMETRIC_REPRESENTATION_CONTEXT() REPRESENTATION_CONTEXT('2D SPACE',''
  ) );
#1006 = PCURVE('',#1007,#1012);
#1007 = PLANE('',#1008);
#1008 = AXIS2_PLACEMENT_3D('',#1009,#1010,#1011);
#1009 = CARTESIAN_POINT('',(189.,-206.,300.));
#1010 = DIRECTION('',(0.,0.,1.));
#1011 = DIRECTION('',(1.,0.,0.));
#1012 = DEFINITIONAL_REPRESENTATION('',(#1013),#1017);
#1013 = LINE('',#1014,#1015);
#1014 = CARTESIAN_POINT('',(22.,0.));
#1015 = VECTOR('',#1016,1.);
#1016 = DIRECTION('',(0.,1.));
#1017 = ( GEOMETRIC_REPRESENTATION_CONTEXT(2) 
PARAMETRIC_REPRESENTATION_CONTEXT() REPRESENTATION_CONTEXT('2D SPACE',''
  ) );
#1018 = ORIENTED_EDGE('',*,*,#1019,.F.);
#1019 = EDGE_CURVE('',#1020,#992,#1022,.T.);
#1020 = VERTEX_POINT('',#1021);
#1021 = CARTESIAN_POINT('',(211.,-206.,292.));
#1022 = SURFACE_CURVE('',#1023,(#1027,#1034),.PCURVE_S1.);
#1023 = LINE('',#1024,#1025);
#1024 = CARTESIAN_POINT('',(211.,-206.,281.));
#1025 = VECTOR('',#1026,1.);
#1026 = DIRECTION('',(0.,0.,1.));
#1027 = PCURVE('',#279,#1028);
#1028 = DEFINITIONAL_REPRESENTATION('',(#1029),#1033);
#1029 = LINE('',#1030,#1031);
#1030 = CARTESIAN_POINT('',(0.,0.));
#1031 = VECTOR('',#1032,1.);
#1032 = DIRECTION('',(1.,0.));
#1033 = ( GEOMETRIC_REPRESENTATION_CONTEXT(2) 
PARAMETRIC_REPRESENTATION_CONTEXT() REPRESENTATION_CONTEXT('2D SPACE',''
  ) );
#1034 = PCURVE('',#347,#1035);
#1035 = DEFINITIONAL_REPRESENTATION('',(#1036),#1040);
#1036 = LINE('',#1037,#1038);
#1037 = CARTESIAN_POINT('',(0.,22.));
#1038 = VECTOR('',#1039,1.);
#1039 = DIRECTION('',(1.,0.));
#1040 = ( GEOMETRIC_REPRESENTATION_CONTEXT(2) 
PARAMETRIC_REPRESENTATION_CONTEXT() REPRESENTATION_CONTEXT('2D SPACE',''
  ) );
#1041 = ORIENTED_EDGE('',*,*,#1042,.F.);
#1042 = EDGE_CURVE('',#232,#1020,#1043,.T.);
#1043 = SURFACE_CURVE('',#1044,(#1048,#1055),.PCURVE_S1.);
#1044 = LINE('',#1045,#1046);
#1045 = CARTESIAN_POINT('',(211.,-262.,292.));
#1046 = VECTOR('',#1047,1.);
#1047 = DIRECTION('',(0.,1.,0.));
#1048 = PCURVE('',#279,#1049);
#1049 = DEFINITIONAL_REPRESENTATION('',(#1050),#1054);
#1050 = LINE('',#1051,#1052);
#1051 = CARTESIAN_POINT('',(11.,56.));
#1052 = VECTOR('',#1053,1.);
#1053 = DIRECTION('',(0.,-1.));
#1054 = ( GEOMETRIC_REPRESENTATION_CONTEXT(2) 
PARAMETRIC_REPRESENTATION_CONTEXT() REPRESENTATION_CONTEXT('2D SPACE',''
  ) );
#1055 = PCURVE('',#248,#1056);
#1056 = DEFINITIONAL_REPRESENTATION('',(#1057),#1061);
#1057 = LINE('',#1058,#1059);
#1058 = CARTESIAN_POINT('',(22.,0.));
#1059 = VECTOR('',#1060,1.);
#1060 = DIRECTION('',(0.,1.));
#1061 = ( GEOMETRIC_REPRESENTATION_CONTEXT(2) 
PARAMETRIC_REPRESENTATION_CONTEXT() REPRESENTATION_CONTEXT('2D SPACE',''
  ) );
#1062 = ORIENTED_EDGE('',*,*,#264,.T.);
#1063 = ORIENTED_EDGE('',*,*,#733,.T.);
#1064 = ORIENTED_EDGE('',*,*,#1065,.T.);
#1065 = EDGE_CURVE('',#734,#1066,#1068,.T.);
#1066 = VERTEX_POINT('',#1067);
#1067 = CARTESIAN_POINT('',(211.,-188.,292.));
#1068 = SURFACE_CURVE('',#1069,(#1073,#1080),.PCURVE_S1.);
#1069 = LINE('',#1070,#1071);
#1070 = CARTESIAN_POINT('',(211.,-188.,270.));
#1071 = VECTOR('',#1072,1.);
#1072 = DIRECTION('',(0.,0.,1.));
#1073 = PCURVE('',#279,#1074);
#1074 = DEFINITIONAL_REPRESENTATION('',(#1075),#1079);
#1075 = LINE('',#1076,#1077);
#1076 = CARTESIAN_POINT('',(-11.,-18.));
#1077 = VECTOR('',#1078,1.);
#1078 = DIRECTION('',(1.,0.));
#1079 = ( GEOMETRIC_REPRESENTATION_CONTEXT(2) 
PARAMETRIC_REPRESENTATION_CONTEXT() REPRESENTATION_CONTEXT('2D SPACE',''
  ) );
#1080 = PCURVE('',#420,#1081);
#1081 = DEFINITIONAL_REPRESENTATION('',(#1082),#1086);
#1082 = LINE('',#1083,#1084);
#1083 = CARTESIAN_POINT('',(0.,22.));
#1084 = VECTOR('',#1085,1.);
#1085 = DIRECTION('',(1.,0.));
#1086 = ( GEOMETRIC_REPRESENTATION_CONTEXT(2) 
PARAMETRIC_REPRESENTATION_CONTEXT() REPRESENTATION_CONTEXT('2D SPACE',''
  ) );
#1087 = ORIENTED_EDGE('',*,*,#1088,.F.);
#1088 = EDGE_CURVE('',#1089,#1066,#1091,.T.);
#1089 = VERTEX_POINT('',#1090);
#1090 = CARTESIAN_POINT('',(211.,-190.,292.));
#1091 = SURFACE_CURVE('',#1092,(#1096,#1103),.PCURVE_S1.);
#1092 = LINE('',#1093,#1094);
#1093 = CARTESIAN_POINT('',(211.,-262.,292.));
#1094 = VECTOR('',#1095,1.);
#1095 = DIRECTION('',(0.,1.,0.));
#1096 = PCURVE('',#279,#1097);
#1097 = DEFINITIONAL_REPRESENTATION('',(#1098),#1102);
#1098 = LINE('',#1099,#1100);
#1099 = CARTESIAN_POINT('',(11.,56.));
#1100 = VECTOR('',#1101,1.);
#1101 = DIRECTION('',(0.,-1.));
#1102 = ( GEOMETRIC_REPRESENTATION_CONTEXT(2) 
PARAMETRIC_REPRESENTATION_CONTEXT() REPRESENTATION_CONTEXT('2D SPACE',''
  ) );
#1103 = PCURVE('',#448,#1104);
#1104 = DEFINITIONAL_REPRESENTATION('',(#1105),#1109);
#1105 = LINE('',#1106,#1107);
#1106 = CARTESIAN_POINT('',(22.,0.));
#1107 = VECTOR('',#1108,1.);
#1108 = DIRECTION('',(0.,1.));
#1109 = ( GEOMETRIC_REPRESENTATION_CONTEXT(2) 
PARAMETRIC_REPRESENTATION_CONTEXT() REPRESENTATION_CONTEXT('2D SPACE',''
  ) );
#1110 = ORIENTED_EDGE('',*,*,#1111,.T.);
#1111 = EDGE_CURVE('',#1089,#783,#1112,.T.);
#1112 = SURFACE_CURVE('',#1113,(#1117,#1124),.PCURVE_S1.);
#1113 = LINE('',#1114,#1115);
#1114 = CARTESIAN_POINT('',(211.,-190.,281.));
#1115 = VECTOR('',#1116,1.);
#1116 = DIRECTION('',(0.,0.,1.));
#1117 = PCURVE('',#279,#1118);
#1118 = DEFINITIONAL_REPRESENTATION('',(#1119),#1123);
#1119 = LINE('',#1120,#1121);
#1120 = CARTESIAN_POINT('',(0.,-16.));
#1121 = VECTOR('',#1122,1.);
#1122 = DIRECTION('',(1.,0.));
#1123 = ( GEOMETRIC_REPRESENTATION_CONTEXT(2) 
PARAMETRIC_REPRESENTATION_CONTEXT() REPRESENTATION_CONTEXT('2D SPACE',''
  ) );
#1124 = PCURVE('',#476,#1125);
#1125 = DEFINITIONAL_REPRESENTATION('',(#1126),#1130);
#1126 = LINE('',#1127,#1128);
#1127 = CARTESIAN_POINT('',(0.,22.));
#1128 = VECTOR('',#1129,1.);
#1129 = DIRECTION('',(1.,0.));
#1130 = ( GEOMETRIC_REPRESENTATION_CONTEXT(2) 
PARAMETRIC_REPRESENTATION_CONTEXT() REPRESENTATION_CONTEXT('2D SPACE',''
  ) );
#1131 = ADVANCED_FACE('',(#1132),#248,.T.);
#1132 = FACE_BOUND('',#1133,.T.);
#1133 = EDGE_LOOP('',(#1134,#1135,#1136,#1137));
#1134 = ORIENTED_EDGE('',*,*,#359,.F.);
#1135 = ORIENTED_EDGE('',*,*,#231,.T.);
#1136 = ORIENTED_EDGE('',*,*,#1042,.T.);
#1137 = ORIENTED_EDGE('',*,*,#1138,.T.);
#1138 = EDGE_CURVE('',#1020,#330,#1139,.T.);
#1139 = SURFACE_CURVE('',#1140,(#1144,#1150),.PCURVE_S1.);
#1140 = LINE('',#1141,#1142);
#1141 = CARTESIAN_POINT('',(189.,-206.,292.));
#1142 = VECTOR('',#1143,1.);
#1143 = DIRECTION('',(-1.,0.,0.));
#1144 = PCURVE('',#248,#1145);
#1145 = DEFINITIONAL_REPRESENTATION('',(#1146),#1149);
#1146 = B_SPLINE_CURVE_WITH_KNOTS('',1,(#1147,#1148),.UNSPECIFIED.,.F.,
  .F.,(2,2),(-22.,0.),.PIECEWISE_BEZIER_KNOTS.);
#1147 = CARTESIAN_POINT('',(22.,56.));
#1148 = CARTESIAN_POINT('',(0.,56.));
#1149 = ( GEOMETRIC_REPRESENTATION_CONTEXT(2) 
PARAMETRIC_REPRESENTATION_CONTEXT() REPRESENTATION_CONTEXT('2D SPACE',''
  ) );
#1150 = PCURVE('',#347,#1151);
#1151 = DEFINITIONAL_REPRESENTATION('',(#1152),#1155);
#1152 = B_SPLINE_CURVE_WITH_KNOTS('',1,(#1153,#1154),.UNSPECIFIED.,.F.,
  .F.,(2,2),(-22.,0.),.PIECEWISE_BEZIER_KNOTS.);
#1153 = CARTESIAN_POINT('',(11.,22.));
#1154 = CARTESIAN_POINT('',(11.,0.));
#1155 = ( GEOMETRIC_REPRESENTATION_CONTEXT(2) 
PARAMETRIC_REPRESENTATION_CONTEXT() REPRESENTATION_CONTEXT('2D SPACE',''
  ) );
#1156 = ADVANCED_FACE('',(#1157),#347,.F.);
#1157 = FACE_BOUND('',#1158,.F.);
#1158 = EDGE_LOOP('',(#1159,#1160,#1161,#1162,#1185));
#1159 = ORIENTED_EDGE('',*,*,#1019,.F.);
#1160 = ORIENTED_EDGE('',*,*,#1138,.T.);
#1161 = ORIENTED_EDGE('',*,*,#329,.T.);
#1162 = ORIENTED_EDGE('',*,*,#1163,.T.);
#1163 = EDGE_CURVE('',#332,#1164,#1166,.T.);
#1164 = VERTEX_POINT('',#1165);
#1165 = CARTESIAN_POINT('',(200.00000000005,-206.,300.));
#1166 = SURFACE_CURVE('',#1167,(#1171,#1178),.PCURVE_S1.);
#1167 = LINE('',#1168,#1169);
#1168 = CARTESIAN_POINT('',(189.,-206.,300.));
#1169 = VECTOR('',#1170,1.);
#1170 = DIRECTION('',(1.,0.,0.));
#1171 = PCURVE('',#347,#1172);
#1172 = DEFINITIONAL_REPRESENTATION('',(#1173),#1177);
#1173 = LINE('',#1174,#1175);
#1174 = CARTESIAN_POINT('',(19.,0.));
#1175 = VECTOR('',#1176,1.);
#1176 = DIRECTION('',(0.,1.));
#1177 = ( GEOMETRIC_REPRESENTATION_CONTEXT(2) 
PARAMETRIC_REPRESENTATION_CONTEXT() REPRESENTATION_CONTEXT('2D SPACE',''
  ) );
#1178 = PCURVE('',#716,#1179);
#1179 = DEFINITIONAL_REPRESENTATION('',(#1180),#1184);
#1180 = LINE('',#1181,#1182);
#1181 = CARTESIAN_POINT('',(0.,0.));
#1182 = VECTOR('',#1183,1.);
#1183 = DIRECTION('',(1.,0.));
#1184 = ( GEOMETRIC_REPRESENTATION_CONTEXT(2) 
PARAMETRIC_REPRESENTATION_CONTEXT() REPRESENTATION_CONTEXT('2D SPACE',''
  ) );
#1185 = ORIENTED_EDGE('',*,*,#1186,.T.);
#1186 = EDGE_CURVE('',#1164,#992,#1187,.T.);
#1187 = SURFACE_CURVE('',#1188,(#1192,#1199),.PCURVE_S1.);
#1188 = LINE('',#1189,#1190);
#1189 = CARTESIAN_POINT('',(189.,-206.,300.));
#1190 = VECTOR('',#1191,1.);
#1191 = DIRECTION('',(1.,0.,0.));
#1192 = PCURVE('',#347,#1193);
#1193 = DEFINITIONAL_REPRESENTATION('',(#1194),#1198);
#1194 = LINE('',#1195,#1196);
#1195 = CARTESIAN_POINT('',(19.,0.));
#1196 = VECTOR('',#1197,1.);
#1197 = DIRECTION('',(0.,1.));
#1198 = ( GEOMETRIC_REPRESENTATION_CONTEXT(2) 
PARAMETRIC_REPRESENTATION_CONTEXT() REPRESENTATION_CONTEXT('2D SPACE',''
  ) );
#1199 = PCURVE('',#1007,#1200);
#1200 = DEFINITIONAL_REPRESENTATION('',(#1201),#1205);
#1201 = LINE('',#1202,#1203);
#1202 = CARTESIAN_POINT('',(0.,0.));
#1203 = VECTOR('',#1204,1.);
#1204 = DIRECTION('',(1.,0.));
#1205 = ( GEOMETRIC_REPRESENTATION_CONTEXT(2) 
PARAMETRIC_REPRESENTATION_CONTEXT() REPRESENTATION_CONTEXT('2D SPACE',''
  ) );
#1206 = ADVANCED_FACE('',(#1207),#420,.T.);
#1207 = FACE_BOUND('',#1208,.T.);
#1208 = EDGE_LOOP('',(#1209,#1210,#1211,#1232));
#1209 = ORIENTED_EDGE('',*,*,#756,.F.);
#1210 = ORIENTED_EDGE('',*,*,#404,.T.);
#1211 = ORIENTED_EDGE('',*,*,#1212,.T.);
#1212 = EDGE_CURVE('',#405,#1066,#1213,.T.);
#1213 = SURFACE_CURVE('',#1214,(#1218,#1225),.PCURVE_S1.);
#1214 = LINE('',#1215,#1216);
#1215 = CARTESIAN_POINT('',(189.,-188.,292.));
#1216 = VECTOR('',#1217,1.);
#1217 = DIRECTION('',(1.,0.,0.));
#1218 = PCURVE('',#420,#1219);
#1219 = DEFINITIONAL_REPRESENTATION('',(#1220),#1224);
#1220 = LINE('',#1221,#1222);
#1221 = CARTESIAN_POINT('',(22.,0.));
#1222 = VECTOR('',#1223,1.);
#1223 = DIRECTION('',(0.,1.));
#1224 = ( GEOMETRIC_REPRESENTATION_CONTEXT(2) 
PARAMETRIC_REPRESENTATION_CONTEXT() REPRESENTATION_CONTEXT('2D SPACE',''
  ) );
#1225 = PCURVE('',#448,#1226);
#1226 = DEFINITIONAL_REPRESENTATION('',(#1227),#1231);
#1227 = LINE('',#1228,#1229);
#1228 = CARTESIAN_POINT('',(0.,74.));
#1229 = VECTOR('',#1230,1.);
#1230 = DIRECTION('',(1.,0.));
#1231 = ( GEOMETRIC_REPRESENTATION_CONTEXT(2) 
PARAMETRIC_REPRESENTATION_CONTEXT() REPRESENTATION_CONTEXT('2D SPACE',''
  ) );
#1232 = ORIENTED_EDGE('',*,*,#1065,.F.);
#1233 = ADVANCED_FACE('',(#1234),#448,.T.);
#1234 = FACE_BOUND('',#1235,.T.);
#1235 = EDGE_LOOP('',(#1236,#1237,#1256,#1257));
#1236 = ORIENTED_EDGE('',*,*,#432,.F.);
#1237 = ORIENTED_EDGE('',*,*,#1238,.F.);
#1238 = EDGE_CURVE('',#1089,#433,#1239,.T.);
#1239 = SURFACE_CURVE('',#1240,(#1244,#1250),.PCURVE_S1.);
#1240 = LINE('',#1241,#1242);
#1241 = CARTESIAN_POINT('',(189.,-190.,292.));
#1242 = VECTOR('',#1243,1.);
#1243 = DIRECTION('',(-1.,0.,0.));
#1244 = PCURVE('',#448,#1245);
#1245 = DEFINITIONAL_REPRESENTATION('',(#1246),#1249);
#1246 = B_SPLINE_CURVE_WITH_KNOTS('',1,(#1247,#1248),.UNSPECIFIED.,.F.,
  .F.,(2,2),(-22.,0.),.PIECEWISE_BEZIER_KNOTS.);
#1247 = CARTESIAN_POINT('',(22.,72.));
#1248 = CARTESIAN_POINT('',(0.,72.));
#1249 = ( GEOMETRIC_REPRESENTATION_CONTEXT(2) 
PARAMETRIC_REPRESENTATION_CONTEXT() REPRESENTATION_CONTEXT('2D SPACE',''
  ) );
#1250 = PCURVE('',#476,#1251);
#1251 = DEFINITIONAL_REPRESENTATION('',(#1252),#1255);
#1252 = B_SPLINE_CURVE_WITH_KNOTS('',1,(#1253,#1254),.UNSPECIFIED.,.F.,
  .F.,(2,2),(-22.,0.),.PIECEWISE_BEZIER_KNOTS.);
#1253 = CARTESIAN_POINT('',(11.,22.));
#1254 = CARTESIAN_POINT('',(11.,0.));
#1255 = ( GEOMETRIC_REPRESENTATION_CONTEXT(2) 
PARAMETRIC_REPRESENTATION_CONTEXT() REPRESENTATION_CONTEXT('2D SPACE',''
  ) );
#1256 = ORIENTED_EDGE('',*,*,#1088,.T.);
#1257 = ORIENTED_EDGE('',*,*,#1212,.F.);
#1258 = ADVANCED_FACE('',(#1259),#476,.T.);
#1259 = FACE_BOUND('',#1260,.T.);
#1260 = EDGE_LOOP('',(#1261,#1262,#1263,#1264,#1314));
#1261 = ORIENTED_EDGE('',*,*,#1111,.F.);
#1262 = ORIENTED_EDGE('',*,*,#1238,.T.);
#1263 = ORIENTED_EDGE('',*,*,#460,.T.);
#1264 = ORIENTED_EDGE('',*,*,#1265,.T.);
#1265 = EDGE_CURVE('',#461,#1266,#1268,.T.);
#1266 = VERTEX_POINT('',#1267);
#1267 = CARTESIAN_POINT('',(200.00000056622,-190.,300.));
#1268 = SURFACE_CURVE('',#1269,(#1282,#1298),.PCURVE_S1.);
#1269 = B_SPLINE_CURVE_WITH_KNOTS('',6,(#1270,#1271,#1272,#1273,#1274,
    #1275,#1276,#1277,#1278,#1279,#1280,#1281),.UNSPECIFIED.,.F.,.F.,(7,
    5,7),(0.,0.65906035885,1.),.UNSPECIFIED.);
#1270 = CARTESIAN_POINT('',(186.8,-190.,295.73184081603));
#1271 = CARTESIAN_POINT('',(188.26211083201,-190.,296.16135684088));
#1272 = CARTESIAN_POINT('',(189.71953049568,-190.,296.60687062075));
#1273 = CARTESIAN_POINT('',(191.17294632738,-190.,297.0653669126));
#1274 = CARTESIAN_POINT('',(192.62307028031,-190.,297.53409026106));
#1275 = CARTESIAN_POINT('',(194.0706717623,-190.,298.01043956121));
#1276 = CARTESIAN_POINT('',(196.26458783424,-190.,298.74098577207));
#1277 = CARTESIAN_POINT('',(197.01212642084,-190.,298.99142766614));
#1278 = CARTESIAN_POINT('',(197.75932359022,-190.,299.24289136646));
#1279 = CARTESIAN_POINT('',(198.50629216985,-190.,299.49503451404));
#1280 = CARTESIAN_POINT('',(199.25314584786,-190.,299.74751738237));
#1281 = CARTESIAN_POINT('',(200.00000016063,-190.,299.99999994405));
#1282 = PCURVE('',#476,#1283);
#1283 = DEFINITIONAL_REPRESENTATION('',(#1284),#1297);
#1284 = B_SPLINE_CURVE_WITH_KNOTS('',6,(#1285,#1286,#1287,#1288,#1289,
    #1290,#1291,#1292,#1293,#1294,#1295,#1296),.UNSPECIFIED.,.F.,.F.,(7,
    5,7),(0.,0.65906035885,1.),.UNSPECIFIED.);
#1285 = CARTESIAN_POINT('',(14.731840816037,-2.2));
#1286 = CARTESIAN_POINT('',(15.16135684088,-0.737889167981));
#1287 = CARTESIAN_POINT('',(15.606870620757,0.719530495686));
#1288 = CARTESIAN_POINT('',(16.065366912603,2.172946327384));
#1289 = CARTESIAN_POINT('',(16.534090261062,3.623070280315));
#1290 = CARTESIAN_POINT('',(17.010439561216,5.0706717623));
#1291 = CARTESIAN_POINT('',(17.740985772079,7.264587834245));
#1292 = CARTESIAN_POINT('',(17.991427666141,8.012126420843));
#1293 = CARTESIAN_POINT('',(18.242891366464,8.75932359022));
#1294 = CARTESIAN_POINT('',(18.495034514046,9.506292169855));
#1295 = CARTESIAN_POINT('',(18.74751738237,10.253145847869));
#1296 = CARTESIAN_POINT('',(18.999999944057,11.000000160636));
#1297 = ( GEOMETRIC_REPRESENTATION_CONTEXT(2) 
PARAMETRIC_REPRESENTATION_CONTEXT() REPRESENTATION_CONTEXT('2D SPACE',''
  ) );
#1298 = PCURVE('',#602,#1299);
#1299 = DEFINITIONAL_REPRESENTATION('',(#1300),#1313);
#1300 = B_SPLINE_CURVE_WITH_KNOTS('',6,(#1301,#1302,#1303,#1304,#1305,
    #1306,#1307,#1308,#1309,#1310,#1311,#1312),.UNSPECIFIED.,.F.,.F.,(7,
    5,7),(0.,0.65906035885,1.),.UNSPECIFIED.);
#1301 = CARTESIAN_POINT('',(2.431611088765,3.704349463799));
#1302 = CARTESIAN_POINT('',(2.451781155266,3.640870750492));
#1303 = CARTESIAN_POINT('',(2.472070626275,3.578077872469));
#1304 = CARTESIAN_POINT('',(2.492460381456,3.515832634492));
#1305 = CARTESIAN_POINT('',(2.51293046296,3.454016982992));
#1306 = CARTESIAN_POINT('',(2.533460944315,3.392521182074));
#1307 = CARTESIAN_POINT('',(2.564674557102,3.299535781339));
#1308 = CARTESIAN_POINT('',(2.575327459151,3.267890533814));
#1309 = CARTESIAN_POINT('',(2.585988587345,3.236287818004));
#1310 = CARTESIAN_POINT('',(2.596655194704,3.204713338445));
#1311 = CARTESIAN_POINT('',(2.607324532961,3.173152981142));
#1312 = CARTESIAN_POINT('',(2.617993880286,3.141592660583));
#1313 = ( GEOMETRIC_REPRESENTATION_CONTEXT(2) 
PARAMETRIC_REPRESENTATION_CONTEXT() REPRESENTATION_CONTEXT('2D SPACE',''
  ) );
#1314 = ORIENTED_EDGE('',*,*,#1315,.T.);
#1315 = EDGE_CURVE('',#1266,#783,#1316,.T.);
#1316 = SURFACE_CURVE('',#1317,(#1328,#1342),.PCURVE_S1.);
#1317 = B_SPLINE_CURVE_WITH_KNOTS('',5,(#1318,#1319,#1320,#1321,#1322,
    #1323,#1324,#1325,#1326,#1327),.UNSPECIFIED.,.F.,.F.,(6,4,6),(0.,
    0.440719746771,1.),.UNSPECIFIED.);
#1318 = CARTESIAN_POINT('',(200.00000016063,-190.,299.99999994405));
#1319 = CARTESIAN_POINT('',(201.15851502805,-190.,299.60835045273));
#1320 = CARTESIAN_POINT('',(202.31702727378,-190.,299.21670177197));
#1321 = CARTESIAN_POINT('',(203.47603809406,-190.,298.82651901361));
#1322 = CARTESIAN_POINT('',(204.63603142942,-190.,298.43927235955));
#1323 = CARTESIAN_POINT('',(207.27140092469,-190.,297.5707277228));
#1324 = CARTESIAN_POINT('',(208.74765534751,-190.,297.09215831468));
#1325 = CARTESIAN_POINT('',(210.227260929,-190.,296.62389426555));
#1326 = CARTESIAN_POINT('',(211.71110040809,-190.,296.16922642326));
#1327 = CARTESIAN_POINT('',(213.2,-190.,295.73184081603));
#1328 = PCURVE('',#476,#1329);
#1329 = DEFINITIONAL_REPRESENTATION('',(#1330),#1341);
#1330 = B_SPLINE_CURVE_WITH_KNOTS('',5,(#1331,#1332,#1333,#1334,#1335,
    #1336,#1337,#1338,#1339,#1340),.UNSPECIFIED.,.F.,.F.,(6,4,6),(0.,
    0.440719746771,1.),.UNSPECIFIED.);
#1331 = CARTESIAN_POINT('',(18.999999944057,11.000000160636));
#1332 = CARTESIAN_POINT('',(18.608350452733,12.158515028056));
#1333 = CARTESIAN_POINT('',(18.216701771975,13.317027273781));
#1334 = CARTESIAN_POINT('',(17.82651901361,14.476038094066));
#1335 = CARTESIAN_POINT('',(17.439272359557,15.636031429426));
#1336 = CARTESIAN_POINT('',(16.570727722802,18.271400924693));
#1337 = CARTESIAN_POINT('',(16.092158314683,19.747655347518));
#1338 = CARTESIAN_POINT('',(15.623894265553,21.227260929004));
#1339 = CARTESIAN_POINT('',(15.169226423269,22.711100408099));
#1340 = CARTESIAN_POINT('',(14.731840816037,24.2));
#1341 = ( GEOMETRIC_REPRESENTATION_CONTEXT(2) 
PARAMETRIC_REPRESENTATION_CONTEXT() REPRESENTATION_CONTEXT('2D SPACE',''
  ) );
#1342 = PCURVE('',#602,#1343);
#1343 = DEFINITIONAL_REPRESENTATION('',(#1344),#1355);
#1344 = B_SPLINE_CURVE_WITH_KNOTS('',5,(#1345,#1346,#1347,#1348,#1349,
    #1350,#1351,#1352,#1353,#1354),.UNSPECIFIED.,.F.,.F.,(6,4,6),(0.,
    0.440719746771,1.),.UNSPECIFIED.);
#1345 = CARTESIAN_POINT('',(2.617993880286,3.141592660583));
#1346 = CARTESIAN_POINT('',(2.634544092676,3.190548849543));
#1347 = CARTESIAN_POINT('',(2.651094267606,3.239504922768));
#1348 = CARTESIAN_POINT('',(2.667632676568,3.288522239722));
#1349 = CARTESIAN_POINT('',(2.684147343902,3.337661359444));
#1350 = CARTESIAN_POINT('',(2.721538996471,3.449582420048));
#1351 = CARTESIAN_POINT('',(2.742394120922,3.512477574529));
#1352 = CARTESIAN_POINT('',(2.763168344276,3.575806396052));
#1353 = CARTESIAN_POINT('',(2.783837045238,3.639707695017));
#1354 = CARTESIAN_POINT('',(2.804376667218,3.704349463799));
#1355 = ( GEOMETRIC_REPRESENTATION_CONTEXT(2) 
PARAMETRIC_REPRESENTATION_CONTEXT() REPRESENTATION_CONTEXT('2D SPACE',''
  ) );
#1356 = ADVANCED_FACE('',(#1357),#602,.T.);
#1357 = FACE_BOUND('',#1358,.T.);
#1358 = EDGE_LOOP('',(#1359,#1360,#1361,#1385,#1412,#1413,#1435,#1457,
    #1481,#1508,#1509,#1510));
#1359 = ORIENTED_EDGE('',*,*,#1265,.F.);
#1360 = ORIENTED_EDGE('',*,*,#488,.T.);
#1361 = ORIENTED_EDGE('',*,*,#1362,.F.);
#1362 = EDGE_CURVE('',#1363,#489,#1365,.T.);
#1363 = VERTEX_POINT('',#1364);
#1364 = CARTESIAN_POINT('',(157.,-45.52181527453,300.));
#1365 = SEAM_CURVE('',#1366,(#1371,#1378),.PCURVE_S1.);
#1366 = CIRCLE('',#1367,86.);
#1367 = AXIS2_PLACEMENT_3D('',#1368,#1369,#1370);
#1368 = CARTESIAN_POINT('',(200.,-120.,300.));
#1369 = DIRECTION('',(0.,0.,1.));
#1370 = DIRECTION('',(-0.5,0.866025403784,0.));
#1371 = PCURVE('',#602,#1372);
#1372 = DEFINITIONAL_REPRESENTATION('',(#1373),#1377);
#1373 = LINE('',#1374,#1375);
#1374 = CARTESIAN_POINT('',(0.,6.28318530718));
#1375 = VECTOR('',#1376,1.);
#1376 = DIRECTION('',(1.,0.));
#1377 = ( GEOMETRIC_REPRESENTATION_CONTEXT(2) 
PARAMETRIC_REPRESENTATION_CONTEXT() REPRESENTATION_CONTEXT('2D SPACE',''
  ) );
#1378 = PCURVE('',#602,#1379);
#1379 = DEFINITIONAL_REPRESENTATION('',(#1380),#1384);
#1380 = LINE('',#1381,#1382);
#1381 = CARTESIAN_POINT('',(0.,0.));
#1382 = VECTOR('',#1383,1.);
#1383 = DIRECTION('',(1.,0.));
#1384 = ( GEOMETRIC_REPRESENTATION_CONTEXT(2) 
PARAMETRIC_REPRESENTATION_CONTEXT() REPRESENTATION_CONTEXT('2D SPACE',''
  ) );
#1385 = ORIENTED_EDGE('',*,*,#1386,.F.);
#1386 = EDGE_CURVE('',#1363,#1363,#1387,.T.);
#1387 = SURFACE_CURVE('',#1388,(#1393,#1400),.PCURVE_S1.);
#1388 = CIRCLE('',#1389,8.);
#1389 = AXIS2_PLACEMENT_3D('',#1390,#1391,#1392);
#1390 = CARTESIAN_POINT('',(161.,-52.45001850481,300.));
#1391 = DIRECTION('',(0.866025403784,0.5,-0.));
#1392 = DIRECTION('',(-0.5,0.866025403784,0.));
#1393 = PCURVE('',#602,#1394);
#1394 = DEFINITIONAL_REPRESENTATION('',(#1395),#1399);
#1395 = LINE('',#1396,#1397);
#1396 = CARTESIAN_POINT('',(0.,0.));
#1397 = VECTOR('',#1398,1.);
#1398 = DIRECTION('',(0.,1.));
#1399 = ( GEOMETRIC_REPRESENTATION_CONTEXT(2) 
PARAMETRIC_REPRESENTATION_CONTEXT() REPRESENTATION_CONTEXT('2D SPACE',''
  ) );
#1400 = PCURVE('',#1401,#1406);
#1401 = PLANE('',#1402);
#1402 = AXIS2_PLACEMENT_3D('',#1403,#1404,#1405);
#1403 = CARTESIAN_POINT('',(161.,-52.45001850481,300.));
#1404 = DIRECTION('',(0.866025403784,0.5,-0.));
#1405 = DIRECTION('',(-0.,0.,-1.));
#1406 = DEFINITIONAL_REPRESENTATION('',(#1407),#1411);
#1407 = CIRCLE('',#1408,8.);
#1408 = AXIS2_PLACEMENT_2D('',#1409,#1410);
#1409 = CARTESIAN_POINT('',(0.,1.846044178928E-14));
#1410 = DIRECTION('',(0.,1.));
#1411 = ( GEOMETRIC_REPRESENTATION_CONTEXT(2) 
PARAMETRIC_REPRESENTATION_CONTEXT() REPRESENTATION_CONTEXT('2D SPACE',''
  ) );
#1412 = ORIENTED_EDGE('',*,*,#1362,.T.);
#1413 = ORIENTED_EDGE('',*,*,#1414,.T.);
#1414 = EDGE_CURVE('',#489,#1164,#1415,.T.);
#1415 = SURFACE_CURVE('',#1416,(#1421,#1428),.PCURVE_S1.);
#1416 = CIRCLE('',#1417,86.);
#1417 = AXIS2_PLACEMENT_3D('',#1418,#1419,#1420);
#1418 = CARTESIAN_POINT('',(200.,-120.,300.));
#1419 = DIRECTION('',(0.,0.,1.));
#1420 = DIRECTION('',(-0.5,0.866025403784,0.));
#1421 = PCURVE('',#602,#1422);
#1422 = DEFINITIONAL_REPRESENTATION('',(#1423),#1427);
#1423 = LINE('',#1424,#1425);
#1424 = CARTESIAN_POINT('',(0.,0.));
#1425 = VECTOR('',#1426,1.);
#1426 = DIRECTION('',(1.,0.));
#1427 = ( GEOMETRIC_REPRESENTATION_CONTEXT(2) 
PARAMETRIC_REPRESENTATION_CONTEXT() REPRESENTATION_CONTEXT('2D SPACE',''
  ) );
#1428 = PCURVE('',#716,#1429);
#1429 = DEFINITIONAL_REPRESENTATION('',(#1430),#1434);
#1430 = CIRCLE('',#1431,86.);
#1431 = AXIS2_PLACEMENT_2D('',#1432,#1433);
#1432 = CARTESIAN_POINT('',(11.,86.));
#1433 = DIRECTION('',(-0.5,0.866025403784));
#1434 = ( GEOMETRIC_REPRESENTATION_CONTEXT(2) 
PARAMETRIC_REPRESENTATION_CONTEXT() REPRESENTATION_CONTEXT('2D SPACE',''
  ) );
#1435 = ORIENTED_EDGE('',*,*,#1436,.T.);
#1436 = EDGE_CURVE('',#1164,#781,#1437,.T.);
#1437 = SURFACE_CURVE('',#1438,(#1443,#1450),.PCURVE_S1.);
#1438 = CIRCLE('',#1439,86.);
#1439 = AXIS2_PLACEMENT_3D('',#1440,#1441,#1442);
#1440 = CARTESIAN_POINT('',(200.,-120.,300.));
#1441 = DIRECTION('',(0.,0.,1.));
#1442 = DIRECTION('',(-0.5,0.866025403784,0.));
#1443 = PCURVE('',#602,#1444);
#1444 = DEFINITIONAL_REPRESENTATION('',(#1445),#1449);
#1445 = LINE('',#1446,#1447);
#1446 = CARTESIAN_POINT('',(0.,0.));
#1447 = VECTOR('',#1448,1.);
#1448 = DIRECTION('',(1.,0.));
#1449 = ( GEOMETRIC_REPRESENTATION_CONTEXT(2) 
PARAMETRIC_REPRESENTATION_CONTEXT() REPRESENTATION_CONTEXT('2D SPACE',''
  ) );
#1450 = PCURVE('',#1007,#1451);
#1451 = DEFINITIONAL_REPRESENTATION('',(#1452),#1456);
#1452 = CIRCLE('',#1453,86.);
#1453 = AXIS2_PLACEMENT_2D('',#1454,#1455);
#1454 = CARTESIAN_POINT('',(11.,86.));
#1455 = DIRECTION('',(-0.5,0.866025403784));
#1456 = ( GEOMETRIC_REPRESENTATION_CONTEXT(2) 
PARAMETRIC_REPRESENTATION_CONTEXT() REPRESENTATION_CONTEXT('2D SPACE',''
  ) );
#1457 = ORIENTED_EDGE('',*,*,#1458,.T.);
#1458 = EDGE_CURVE('',#781,#1459,#1461,.T.);
#1459 = VERTEX_POINT('',#1460);
#1460 = CARTESIAN_POINT('',(243.,-45.52181527453,300.));
#1461 = SEAM_CURVE('',#1462,(#1467,#1474),.PCURVE_S1.);
#1462 = CIRCLE('',#1463,86.);
#1463 = AXIS2_PLACEMENT_3D('',#1464,#1465,#1466);
#1464 = CARTESIAN_POINT('',(200.,-120.,300.));
#1465 = DIRECTION('',(0.,0.,1.));
#1466 = DIRECTION('',(-0.5,0.866025403784,0.));
#1467 = PCURVE('',#602,#1468);
#1468 = DEFINITIONAL_REPRESENTATION('',(#1469),#1473);
#1469 = LINE('',#1470,#1471);
#1470 = CARTESIAN_POINT('',(0.,0.));
#1471 = VECTOR('',#1472,1.);
#1472 = DIRECTION('',(1.,0.));
#1473 = ( GEOMETRIC_REPRESENTATION_CONTEXT(2) 
PARAMETRIC_REPRESENTATION_CONTEXT() REPRESENTATION_CONTEXT('2D SPACE',''
  ) );
#1474 = PCURVE('',#602,#1475);
#1475 = DEFINITIONAL_REPRESENTATION('',(#1476),#1480);
#1476 = LINE('',#1477,#1478);
#1477 = CARTESIAN_POINT('',(0.,6.28318530718));
#1478 = VECTOR('',#1479,1.);
#1479 = DIRECTION('',(1.,0.));
#1480 = ( GEOMETRIC_REPRESENTATION_CONTEXT(2) 
PARAMETRIC_REPRESENTATION_CONTEXT() REPRESENTATION_CONTEXT('2D SPACE',''
  ) );
#1481 = ORIENTED_EDGE('',*,*,#1482,.T.);
#1482 = EDGE_CURVE('',#1459,#1459,#1483,.T.);
#1483 = SURFACE_CURVE('',#1484,(#1489,#1496),.PCURVE_S1.);
#1484 = CIRCLE('',#1485,8.);
#1485 = AXIS2_PLACEMENT_3D('',#1486,#1487,#1488);
#1486 = CARTESIAN_POINT('',(239.,-52.45001850481,300.));
#1487 = DIRECTION('',(0.866025403784,-0.5,0.));
#1488 = DIRECTION('',(0.5,0.866025403784,0.));
#1489 = PCURVE('',#602,#1490);
#1490 = DEFINITIONAL_REPRESENTATION('',(#1491),#1495);
#1491 = LINE('',#1492,#1493);
#1492 = CARTESIAN_POINT('',(5.235987755983,4.440892098501E-16));
#1493 = VECTOR('',#1494,1.);
#1494 = DIRECTION('',(0.,1.));
#1495 = ( GEOMETRIC_REPRESENTATION_CONTEXT(2) 
PARAMETRIC_REPRESENTATION_CONTEXT() REPRESENTATION_CONTEXT('2D SPACE',''
  ) );
#1496 = PCURVE('',#1497,#1502);
#1497 = PLANE('',#1498);
#1498 = AXIS2_PLACEMENT_3D('',#1499,#1500,#1501);
#1499 = CARTESIAN_POINT('',(239.,-52.45001850481,300.));
#1500 = DIRECTION('',(0.866025403784,-0.5,-0.));
#1501 = DIRECTION('',(-0.,0.,-1.));
#1502 = DEFINITIONAL_REPRESENTATION('',(#1503),#1507);
#1503 = CIRCLE('',#1504,8.);
#1504 = AXIS2_PLACEMENT_2D('',#1505,#1506);
#1505 = CARTESIAN_POINT('',(0.,1.846044178928E-14));
#1506 = DIRECTION('',(0.,1.));
#1507 = ( GEOMETRIC_REPRESENTATION_CONTEXT(2) 
PARAMETRIC_REPRESENTATION_CONTEXT() REPRESENTATION_CONTEXT('2D SPACE',''
  ) );
#1508 = ORIENTED_EDGE('',*,*,#1458,.F.);
#1509 = ORIENTED_EDGE('',*,*,#780,.T.);
#1510 = ORIENTED_EDGE('',*,*,#1315,.F.);
#1511 = ADVANCED_FACE('',(#1512),#716,.T.);
#1512 = FACE_BOUND('',#1513,.T.);
#1513 = EDGE_LOOP('',(#1514,#1515,#1516));
#1514 = ORIENTED_EDGE('',*,*,#702,.F.);
#1515 = ORIENTED_EDGE('',*,*,#1163,.T.);
#1516 = ORIENTED_EDGE('',*,*,#1414,.F.);
#1517 = ADVANCED_FACE('',(#1518),#1007,.T.);
#1518 = FACE_BOUND('',#1519,.T.);
#1519 = EDGE_LOOP('',(#1520,#1521,#1522));
#1520 = ORIENTED_EDGE('',*,*,#1436,.F.);
#1521 = ORIENTED_EDGE('',*,*,#1186,.T.);
#1522 = ORIENTED_EDGE('',*,*,#991,.T.);
#1523 = ADVANCED_FACE('',(#1524),#1401,.T.);
#1524 = FACE_BOUND('',#1525,.T.);
#1525 = EDGE_LOOP('',(#1526));
#1526 = ORIENTED_EDGE('',*,*,#1386,.T.);
#1527 = ADVANCED_FACE('',(#1528),#1497,.F.);
#1528 = FACE_BOUND('',#1529,.F.);
#1529 = EDGE_LOOP('',(#1530));
#1530 = ORIENTED_EDGE('',*,*,#1482,.T.);
#1531 = ( GEOMETRIC_REPRESENTATION_CONTEXT(3) 
GLOBAL_UNCERTAINTY_ASSIGNED_CONTEXT((#1535)) 
GLOBAL_UNIT_ASSIGNED_CONTEXT((#1532,#1533,#1534)) REPRESENTATION_CONTEXT
('Context #1','3D Context with UNIT and UNCERTAINTY') );
#1532 = ( LENGTH_UNIT() NAMED_UNIT(*) SI_UNIT(.MILLI.,.METRE.) );
#1533 = ( NAMED_UNIT(*) PLANE_ANGLE_UNIT() SI_UNIT($,.RADIAN.) );
#1534 = ( NAMED_UNIT(*) SI_UNIT($,.STERADIAN.) SOLID_ANGLE_UNIT() );
#1535 = UNCERTAINTY_MEASURE_WITH_UNIT(LENGTH_MEASURE(2.E-07),#1532,
  'distance_accuracy_value','confusion accuracy');
#1536 = PRODUCT_RELATED_PRODUCT_CATEGORY('part',$,(#7));
ENDSEC;
END-ISO-10303-21;
